<svg version="1.2" xmlns="http://www.w3.org/2000/svg" viewBox="0 0 727 727" width="727" height="727"><style>.a{fill:#403320}.b{fill:#fcdeb2}.c{fill:#2f3d26}.d{fill:#988744}.e{fill:#ebac4d}.f{fill:#c6833e}.g{fill:#ba3e25}.h{fill:#e9c584}.i{fill:#fdf5d9}.j{fill:#886031}.k{fill:#a6692f}.l{fill:#eac685}.m{fill:#bb7936}.n{fill:#413320}.o{fill:#ec973c}.p{fill:#da9344}.q{fill:#734224}.r{fill:#ebab4d}.s{fill:#fef5da}.t{fill:#423420}.u{fill:#eaab4d}.v{fill:#db9445}.w{fill:#fddfb3}.x{fill:#ebac4e}.y{fill:#f0a141}.z{fill:#efa141}.A{fill:#efa140}.B{fill:#efa040}.C{fill:#271f10}.D{fill:#ebae51}.E{fill:#ebad51}.F{fill:#ebad50}.G{fill:#f0a140}.H{fill:#dc9646}.I{fill:#2c2212}.J{fill:#e9a94c}.K{fill:#e99d40}.L{fill:#fde9ca}.M{fill:#292011}.N{fill:#281f10}.O{fill:#ee983c}.P{fill:#978644}.Q{fill:#d69043}.R{fill:#251b0e}.S{fill:#2b2111}.T{fill:#282011}.U{fill:#312815}.V{fill:#ec9f40}.W{fill:#e99e41}.X{fill:#241a0e}.Y{fill:#2b2212}.Z{fill:#2d2212}.a0{fill:#f9d9a7}.a1{fill:#332413}.a2{fill:#eca44a}.a3{fill:#754424}.a4{fill:#2c2312}.a5{fill:#271f11}.a6{fill:#251d10}.a7{fill:#2a2011}.a8{fill:#fdf3d5}.a9{fill:#2e2513}.aa{fill:#ecab4d}.ab{fill:#784928}.ac{fill:#fce6c2}.ad{fill:#dd9645}.ae{fill:#251c0f}.af{fill:#2a1e10}.ag{fill:#fbe1ba}.ah{fill:#282012}.ai{fill:#2e2313}.aj{fill:#302514}.ak{fill:#281d10}.al{fill:#e39c42}.am{fill:#261c0f}.an{fill:#332815}.ao{fill:#2d2413}.ap{fill:#271e10}.aq{fill:#e0a149}.ar{fill:#eac078}.as{fill:#2f2513}.at{fill:#fcf1d2}.au{fill:#2a2111}.av{fill:#282112}.aw{fill:#e8a94e}.ax{fill:#e19d45}.ay{fill:#f7daac}.az{fill:#ea9e40}.aA{fill:#2c2413}.aB{fill:#e8a043}.aC{fill:#e59a40}.aD{fill:#fde8c6}.aE{fill:#241b0e}.aF{fill:#e7a64a}.aG{fill:#ed9a3f}.aH{fill:#e3be7b}.aI{fill:#2a2212}.aJ{fill:#e7a950}.aK{fill:#41331b}.aL{fill:#e39a41}.aM{fill:#de9b4c}.aN{fill:#eda042}.aO{fill:#352a16}.aP{fill:#b67938}.aQ{fill:#fce4bc}.aR{fill:#f8d6a2}.aS{fill:#362a16}.aT{fill:#342d18}.aU{fill:#261e0f}.aV{fill:#c7843e}.aW{fill:#2e2413}.aX{fill:#322815}.aY{fill:#2c2112}.aZ{fill:#feebcd}.b0{fill:#2f2714}.b1{fill:#fbe2b8}.b2{fill:#2d2312}.b3{fill:#302513}.b4{fill:#2f2413}.b5{fill:#fcecc9}.b6{fill:#271d10}.b7{fill:#ebaa4b}.b8{fill:#fce6c1}.b9{fill:#312614}.ba{fill:#f9d8a7}.bb{fill:#372c17}.bc{fill:#eaa649}.bd{fill:#eba84a}.be{fill:#2a1f10}.bf{fill:#382c17}.bg{fill:#f5d39f}.bh{fill:#ed9e40}.bi{fill:#fde7c5}.bj{fill:#2f2514}.bk{fill:#e6a54a}.bl{fill:#c5823d}.bm{fill:#c3813d}.bn{fill:#342815}.bo{fill:#f9d9a9}.bp{fill:#342614}.bq{fill:#e9a649}.br{fill:#fadbac}.bs{fill:#e99f43}.bt{fill:#ec9e40}.bu{fill:#3a2e18}.bv{fill:#feeacb}.bw{fill:#eca94b}.bx{fill:#eca043}.by{fill:#e89d41}.bz{fill:#322a16}.bA{fill:#352a17}.bB{fill:#fdebcc}.bC{fill:#efa443}.bD{fill:#3b2f19}.bE{fill:#efa344}.bF{fill:#e9a64a}.bG{fill:#3f351c}.bH{fill:#e7bd78}.bI{fill:#3b3019}.bJ{fill:#3c3019}.bK{fill:#2c2012}.bL{fill:#e5a046}.bM{fill:#342915}.bN{fill:#b17134}.bO{fill:#dc9645}.bP{fill:#d29445}.bQ{fill:#41341b}.bR{fill:#eaa74a}.bS{fill:#42371c}.bT{fill:#2f2213}.bU{fill:#ddb06d}.bV{fill:#fce8c3}.bW{fill:#3a2f19}.bX{fill:#e69e44}.bY{fill:#342514}.bZ{fill:#efd2a1}.c0{fill:#e7943b}.c1{fill:#332715}.c2{fill:#312313}.c3{fill:#f6d5a1}.c4{fill:#fbe7c2}.c5{fill:#382814}.c6{fill:#2b2112}.c7{fill:#dbb976}.c8{fill:#362b17}.c9{fill:#fadeb2}.ca{fill:#3a2e19}.cb{fill:#3e311a}.cc{fill:#40341b}.cd{fill:#2d2313}.ce{fill:#382d17}.cf{fill:#39301a}.cg{fill:#49381d}.ch{fill:#ae7235}.ci{fill:#f2d3a1}.cj{fill:#dd9943}.ck{fill:#fde7c4}.cl{fill:#f9d9a8}.cm{fill:#d39243}.cn{fill:#ce8d42}.co{fill:#f1a241}.cp{fill:#42381c}.cq{fill:#3a311a}.cr{fill:#3b2e18}.cs{fill:#fbdfb2}.ct{fill:#e2ba74}.cu{fill:#feeaca}.cv{fill:#524123}.cw{fill:#392d18}.cx{fill:#291f11}.cy{fill:#e7943c}.cz{fill:#eac787}.cA{fill:#2f2312}.cB{fill:#fde7c6}.cC{fill:#3d301a}.cD{fill:#f8d8a7}.cE{fill:#3e321a}.cF{fill:#f7d8a8}.cG{fill:#e7a448}.cH{fill:#fce8c5}.cI{fill:#db9748}.cJ{fill:#42331b}.cK{fill:#fce9c6}.cL{fill:#392c17}.cM{fill:#bc7a37}.cN{fill:#3b2d18}.cO{fill:#2e2214}.cP{fill:#382d18}.cQ{fill:#f8e9c5}.cR{fill:#e79b40}.cS{fill:#332a16}.cT{fill:#fbdcad}.cU{fill:#f7d8a7}.cV{fill:#292111}.cW{fill:#df903d}.cX{fill:#e9a74a}.cY{fill:#e9a84b}.cZ{fill:#41341c}.d0{fill:#fdf1d1}.d1{fill:#392b17}.d2{fill:#f7d7a4}.d3{fill:#372a16}.d4{fill:#322715}.d5{fill:#e79d41}.d6{fill:#e2a047}.d7{fill:#fde8c5}.d8{fill:#eba749}.d9{fill:#dd9a46}.da{fill:#f1d7a9}.db{fill:#322915}.dc{fill:#3d311a}.dd{fill:#d38d41}.de{fill:#ecaa4b}.df{fill:#fbe5c1}.dg{fill:#e1963d}.dh{fill:#de9946}.di{fill:#45391d}.dj{fill:#342a16}.dk{fill:#372d17}.dl{fill:#f0cf99}.dm{fill:#806b37}.dn{fill:#fce5be}.do{fill:#fbdbac}.dp{fill:#fde9c9}.dq{fill:#c17f3b}.dr{fill:#e3c793}.ds{fill:#bf7938}.dt{fill:#ee9b3d}.du{fill:#eca244}.dv{fill:#eba042}.dw{fill:#352514}.dx{fill:#2b2414}.dy{fill:#3e331b}.dz{fill:#9e6831}.dA{fill:#40361d}.dB{fill:#eca648}.dC{fill:#463c1f}.dD{fill:#2d2112}.dE{fill:#352b17}.dF{fill:#ddb065}.dG{fill:#312714}.dH{fill:#2c2011}.dI{fill:#fde3ba}.dJ{fill:#fde9c7}.dK{fill:#fbdeb0}.dL{fill:#3c321a}.dM{fill:#332615}.dN{fill:#fbefce}.dO{fill:#372b17}.dP{fill:#2a2312}.dQ{fill:#eea142}</style><path class="a" d="m362.4 10.6l1.8 1.8 3.6 4.6 4.2 5 2.5 2.8 3.9 4.3 4.3 4.6 7.8 7.8 2.8 2.5 5 4.6 3.9 3.2 4.6 3.9 13.5 10.3 4.3 2.9 5.6 3.9 5.4 3.5 13.1 8.5 8.9 5.7 6.4 4.3 7.8 5.3 6.4 4.6 6.7 4.6 5.7 4.3 5 3.9 6 5 3.9 3.2 4.6 3.9 3.9 3.5 2.9 2.5 3.5 3.2 4.6 4.6 2.9 2.5 5.3 5.3 2.5 2.9 5.6 5.6 2.5 2.9 3.9 4.2 3.2 3.9 3.6 4.3 3.9 5 5 6.4 4.6 6.7 5.6 8.5 4.7 7.5 4.9 8.5 5.7 10.3 4.6 9.6 5.7 12.8 5.3 13.8 3.6 9.9 4.2 14.2 3.9 15.7 2.5 12.7 2.5 17.4 1.1 10.7 0.7 11.3v31.3l-1.1 14.9-1.4 13.1-1.4 9.6-1.4 7.1-1.1 6-2.1 8.9-1.4 6.1-2.5 7.8-1.8 6-2.1 5.7-3.6 9.9-1.8 3.9-2.4 6.4-5.4 11.7-2.8 5.7-2.9 6-1.7 2.9-2.5 5-5 8.5-4.6 7.4-5.7 8.5-3.5 5-5 6.8-5 6.3-4.2 5.4-3.2 3.9-4.6 5.3-4.6 5-2.5 2.8-3.2 3.6-3.6 3.5-0.7 1.1h-0.7v0.7l-2.8 2.5-6.4 6.4-2.9 2.4-5.3 5-2.8 2.5-5.4 4.6-6 5-5.7 4.6-12 9.2-6.8 5-7.1 5-8.2 5.6-11.7 7.9-6 3.9-8.2 5.3-8.8 5.7-6.1 3.9-15.6 10.3-8.2 5.6-4.9 3.6-6.4 4.6-9.2 7.1-5.4 4.3-2.1 1.7-1.1 1.1-3.9-3.5-13.5-10.3-4.9-3.6-6.1-4.2-8.5-5.7-3.9-2.9-13.5-8.8-11.7-7.8-6.7-4.3-12.8-8.5-8.9-6.1-8.2-5.6-6.3-4.7-6.1-4.2-4.6-3.6-6.4-4.9-5-3.9-4.6-3.9-3.9-3.2-3.5-3.2-2.9-2.5-3.5-3.2-4.3-3.9-3.2-3.2-1.7-1.4v-0.7h-0.8l-10.2-10.3v-0.7h-0.8l-2.4-2.9-5.4-5.7-2.4-2.8-4.7-5.3-2.8-3.6-7.8-9.9-4.3-5.7-4.9-7.1-3.6-5.3-4.3-6.8-6.3-10.6-2.2-3.9-4.9-9.6-3.2-6.8-1.8-3.5-3.6-7.8-1.7-4.6-1.8-3.6-1.8-5.3-1.4-3.2-6-18.1-1.8-6.4-1.4-6.4-1.1-4.6-1.4-6.4-2.2-10.3-2.1-14.5-1.4-13.5-1.1-16.4v-19.1l0.7-13.5 0.8-10.3 0.3-1.4 1.1-11 2.5-15.3 3.2-15.3 2.8-10.3 2.8-9.2 2.9-8.5 3.9-9.9 4.2-10 4.3-9.2 5-10.3 4.9-9.2 9.6-16 3.9-6 3.9-5.7 5-6.8 3.9-4.9 2.8-3.6 4.7-5.7 3.2-3.5 2.4-2.9 3.9-4.2 2.5-2.5 2.5-2.8 10-10 2.8-2.5 2.5-2.4 2.8-2.5 3.6-3.2 3.9-3.6 7.8-6.4 6-4.9 5-3.9 6-4.7 6.8-4.9 6.7-4.6 5-3.6 12.4-8.2 6.7-4.2 8.2-5.3 7.5-5 7.1-5 6.7-4.9 5-4 5.7-4.6 4.6-3.9 3.5-3.2 2.9-2.5 3.5-3.1 4.6-4.3 9.3-9.2 2.4-2.9 3.6-3.9 2.5-2.8 3.9-4.6z"/><path class="b" d="m362.1 44l1.4 0.7 3.9 4.3 13.1 13.1 3.9 3.2 5 4.6 5 3.9 5.7 4.7 6 4.2 8.2 5.7 14.9 9.9 4.9 3.2 15.7 10 4.9 3.5 7.8 5.3 6.1 4.3 5.7 4.3 6.3 4.9 8.9 7.1 6.1 5 3.5 3.2 4.3 3.9 3.5 3.2 6 5.7 7.1 7.1 2.5 2.8 3.2 3.2 2.5 2.8 3.9 4.3 3.2 3.9 4.6 5.7 4.3 5.7 4.6 6.4 5 7.4 4.2 6.8 6.1 10.3 3.2 5.6 3.2 6.1 3.9 8.1 1.7 3.9 2.9 6.4 3.5 8.9 2.2 5.7 2.4 7.1 1.8 5.3 2.1 7.8 1.5 5.3 1.7 6.8 2.2 9.6 2.5 15.6 1.7 17.4 0.7 13.8v19.9l-0.7 12.4-1.4 13.9-2.5 17.4-2.5 11.3-1.7 8.2-3.2 11-5.4 16-1.7 4.2-15.3 0.7-14.2 1.8-7.1 1.4-8.2 2.2-11.7 3.9-12.8 5.3-9.5 4.6-8.2 4.6-6.4 3.9-5.3 3.6-6.8 4.9-4.9 4-6.1 4.6-11.3 9.2-7.1 5-6.8 4.6-4.6 3.2-7.8 4.9-8.5 4.7-9.6 4.2-6.4 1.8-8.5 1.4-14.2 0.4 0.7-1.5 1.4-0.7 0.4-1 1.8-1.8 3.5-3.2 3.6-4.6h0.7l0.7-1.4 3.2-4.3 4.9-7.4 2.9-4.7 2.1-3.2 5.3-10.6 2.5-6 2.5-7.1 1.8-4.7 1.8-4.2 4.9-10.3 5-8.2 5-6.7 3.9-4.3 4.2-4.2 6.1-4.7 6.7-4.9 6-4.3 6.8-4.6 4.6-3.5 4.3-3.2 6-5 3.9-3.2 8.9-7.1 6.4-4.3 5.3-2.8 5.3-2.1 5-1.5 8.9-1.7 8.8-1.4 9.3-2.5 5.6-2.5 3.6-1.8 3.9-2.8 4.3-3.9 3.1-3.2 4.3-5.7 3.6-5.7 3.5-3.9 3.2-4.3 2.1-3.5 1.8-3.9 2.1-6.4 1.1-5 0.4-2.8v-12.8l-0.8-7.1-1.7-7.4-2.5-5.7-3.6-5.7-4.2-4.6-3.2-2.5-3.9-2.1-4.3-2.2-6.7-2.4-10.3-2.2-10.3-1.4-11-1.8-12.8-2.1-8.9-1.8-12.4-3.5-10.3-3.9-3.2-1.5-7.4-3.9-3.2-1.7-7.5-4.6-7.1-5-5.7-4.3-4.6-3.9-5-3.9-5.3-4.2-6.4-4.7-6-4.2-8.5-5-6.1-3.2-6-2.5-2.8-1-5.4-1.8-9.5-2.1-7.5-1.1h-13.1l-6.8 1.1-8.5 1.7-9.2 2.9-4.6 1.8-5.4 2.4-7.8 4.3-6 4.3-4.6 3.5-1.4 1.4-2.2-0.7-9.2-5-5-2.8-5.7-2.8-8.8-4.6-5.7-3.2-5.3-2.9-3.9-2.1-3.6-2.1-4.2-2.2-3.9-2.5-4-2.1-6-3.2-2.8-1h-3.9l-1.5 0.7-2.1 4.2-0.3 1.8v5.7l1 4.2 1.8 5 2.8 5 2.9 3.9 2.8 3.5 3.9 4.3 5 5 7.8 6.4 5.7 4.2 7.1 4.6 7.4 4.6 5.4 3.2 1.4 0.7-0.7 2.2-2.9 5.7-1.4-0.4-3.5-3.2-6.1-4.3-7.4-4.6-8.9-4.2-2.8-1.4-6.1-2.2-4.2-1.4-6.8-1.8-6.7-1.4-4.6-0.7-5.4-0.7-4.9-0.4h-16l-8.9 1.1-8.9 1.8-8.5 2.5-4.9 1.7-3.6 1.5-3.2 1.4-5.7 2.8h-0.7v0.7l-5.7 2.9-6.3 4.2-4 3.2-4.6 4.6-1.7 3.6v4.2l0.7 3.2 1.7 5.4 2.9 6 5 8.2 4.6 6.3 3.9 4.7 4.2 4.6 2.9 2.8 3.9 3.2 4.2 3.6 6.4 4.6 5.4 3.2 5.6 3.2 10.7 4.6 9.6 3.2 8.8 2.1 7.1 1.1 8.6 0.7h3.5l-0.7 1.8-3.9 4.9-3.9 4.3-2.5 2.8-8.5 8.5-2.9 2.5-3.9 3.6-3.9 3.2-3.5 3.2-3.9 3.2-6.1 4.9-6.7 4.6-6.4 4.3-8.5 5-8.2 4.2-4.9 2.2-3.9 1.7-10.7 3.9-4.3 1.5h-0.7l-3.2-19.2-1.7-14.2-1.1-12.1-0.4-7.4v-23.5l0.8-11.3 1.7-15.6 1.4-10.3 1.5-6.8v-2.5l-4.6-9.9-1.5-3.9-1-4.3v-4.2l1.7-5 2.9-3.9 2.8-2.8 5.7-4.3 6.7-4.3 2.2-1.4 3.5-9.9 5-10.7 4.3-8.8 4.2-7.8 2.9-5 2.4-3.9 1.8-3.2 7.1-10.7 5-6.7 4.6-6 4.6-5.7 3.2-3.9 4.3-5 2.5-2.5 2.4-2.8 5.7-6.1 7.1-7.1 2.9-2.4 5.3-5 2.8-2.5 5.3-4.6 5-4.3 5-3.9 5.7-4.6 5.6-4.3 6.8-4.9 6-4.3 7.5-5 12.4-8.1 6-3.9 8.2-5.3 4.3-2.9 7.1-5 6.4-4.6 5.6-4.2 5-3.9 4.6-3.9 3.9-3.2 4.3-3.9 2.8-2.5 4.3-3.9 2.8-2.9 2.9-2.5 2.1-2.4h0.7l0.7-1.5 4.6-4.6z"/><path class="b" d="m359.6 229h14.2l8.5 1.4 8.5 2.1 7.8 2.9 6.1 2.8 7.4 4.3 5.4 3.5 6.3 4.6 5.7 4.6 5 3.9 6 5 7.1 5.3 6.8 5 3.9 2.5 5.7 3.5 5.6 2.9 6.1 2.8 8.5 3.2 8.9 2.8 8.5 2.2 21.3 4.2 27.3 5 8.5 2.1 6.8 2.5 2.8 2.2 2.5 2.1 0.4 1h-20.6l-2.9 0.8-2.8 1.4-2.5 2.8-1.8 3.9v5l1.5 3.9 2.1 3.2 2.8 2.5 4.3 2.1 3.9 1.1 2.8 0.3h4.3l7.1-1 7.1-1.8h2.8l0.4 2.5v7.1l-1.4 7.1-2.9 8.1-2.1 3.9-3.6 3.2-7.4 3.6-10.7 3.5-6.7 1.5-9.6 1h-7.1l-9.9-1-5.4-1.5-3.5-1-3.6-1.8-2.8-0.4-0.7 1.5 0.4 2.1 2.4 2.1 5.4 2.5 4.6 1.4 7.4 1.4 3.9 0.4h12.5l9.9-1.1 9.6-2.1 3.9-0.7-0.7 1.8-4.3 4.6-3.9 3.5-3.9 2.5-5.7 2.5-4.6 1.4-8.1 1.8-14.6 2.5-7.5 2.1-7.4 3.2-5.3 2.8-6.1 4.3-4.9 3.9-5 4.3-5.3 4.9-3.9 3.2-4.3 3.6-6 4.2-6.8 4.3-7.1 3.9-9.2 3.9-7.8 2.9-10.3 2.4-13.1 2.2-6.4 0.7h-22.8l-7.4-0.7-7.1-1.5 8.5 2.9 7.1 2.1 5.3 1.1 6.1 0.7h19.1l11-1.1 10-1.7h1.8l-2.2 2.4-3.5 4.7-3.9 5.6-3.9 6.8-2.2 3.9-4.6 9.6-5.3 13.5-3.6 8.5-4.6 8.9-4.6 7.4-4.6 6.4-3.2 3.9-4.3 5-3.5 3.9-2.8 2.5-5.4 4.9-3.9 3.2-6 5-4.6 3.5-2.1-0.7-5.7-2.8-6.8-4.6-4.6-3.6-3.9-3.5-2.8-2.5-5.4-5.3-2.8-2.5-6.7-6.8-2.5-2.8-4.3-4.6-3.9-5-4.6-5.7-4.6-6.4-5-6.7-4.3-6-9.2-13.9-4.2-6.7-4.7-7.5-5.3-9.2-4.6-8.2-4.6-8.5-4.3-8.2-5.3-10.6-4.3-9.2-4.9-11-5.3-12.8-3.2-8.5-1.1-2.5v-1.8l3.5-3.5 3.2-4 4.7-5.6 3.5-4.6 1.8-2.2 3.5-2.5 8.9-3.5 8.2-3.9 4.9-3.2 6.1-5 3.2-3.2 6.4-7.8 1-1.8-1.8-0.3-3.2-2.1-4.6-2.9v-0.3h13.2l2.8-1.5-0.3-1-5.7-2.9-8.5-3.5-5.7-2.9-4.3-2.4-5.7-4.7-4.6-3.9-4.9-3.9-4.3-3.5-6.8-4.6-5.3-3.2-6.7-3.6-3.9-1.4-6.4-2.1-9.2-1.8-4-0.7v-0.4h4.7l6 1.1 5.3 1.4 4.3 1.1 3.9 0.7 5.7 1.1 9.6 0.3 12 0.7h5l1.1-0.7h1l-0.3-1.8-2.5-3.2-0.7-0.7 1.4 0.4 3.9 2.1 5 3.6 3.9 3.2 3.5 3.2 3.6 3.5 2.8 2.5 6 4.6 5.7 4.3h0.7l-2.8-5.7-3.6-5.7-2.8-3.9 0.4-2.1 2.8-5.7 5.3-9.9 4.3-6.4 4.2-5.7 3.9-4.3 2.2-2.5 2.8-2.4 3.2-2.9 7.1-5.3 7.5-4.3 6-2.8 6.4-2.5 5-1.4 9.2-1.8z"/><path class="c" d="m362.4 10.6l1.8 1.8 3.6 4.6 4.2 5 2.5 2.8 3.9 4.3 4.3 4.6 7.8 7.8 2.8 2.5 5 4.6 3.9 3.2 4.6 3.9 13.5 10.3 4.3 2.9 5.6 3.9 5.4 3.5 13.1 8.5 8.9 5.7 6.4 4.3 7.8 5.3 6.4 4.6 6.7 4.6 5.7 4.3 5 3.9 6 5 3.9 3.2 4.6 3.9 3.9 3.5 2.9 2.5 3.5 3.2 4.6 4.6 2.9 2.5 5.3 5.3 2.5 2.9 5.6 5.6 2.5 2.9 3.9 4.2 3.2 3.9 3.6 4.3 3.9 5 5 6.4 4.6 6.7 5.6 8.5 4.7 7.5 4.9 8.5 5.7 10.3 4.6 9.6 5.7 12.8 5.3 13.8 3.6 9.9 4.2 14.2 3.9 15.7 2.5 12.7 2.5 17.4 1.1 10.7 0.7 11.3v31.3l-1.1 14.9-1.4 13.1-1.4 9.6-1.4 7.1-1.1 6-2.1 8.9-1.4 6.1-2.5 7.8-1.8 6-2.1 5.7-3.6 9.9-1.8 3.9-2.4 6.4-5.4 11.7-2.8 5.7-2.9 6-1.7 2.9-2.5 5-5 8.5-4.6 7.4-5.7 8.5-3.5 5-5 6.8-5 6.3-4.2 5.4-3.2 3.9-4.6 5.3-4.6 5-2.5 2.8-3.2 3.6-3.6 3.5-0.7 1.1h-0.7v0.7l-2.8 2.5-6.4 6.4-2.9 2.4-5.3 5-2.8 2.5-5.4 4.6-6 5-5.7 4.6-12 9.2-6.8 5-7.1 5-8.2 5.6-11.7 7.9-6 3.9-8.2 5.3-8.8 5.7-6.1 3.9-15.6 10.3-8.2 5.6-4.9 3.6-6.4 4.6-9.2 7.1-5.4 4.3-2.1 1.7-1.1 1.1-3.9-3.5-13.5-10.3-4.9-3.6-6.1-4.2-8.5-5.7-3.9-2.9-13.5-8.8-11.7-7.8-6.7-4.3-12.8-8.5-8.9-6.1-8.2-5.6-6.3-4.7-6.1-4.2-4.6-3.6-6.4-4.9-5-3.9-4.6-3.9-3.9-3.2-3.5-3.2-2.9-2.5-3.5-3.2-4.3-3.9-3.2-3.2-1.7-1.4v-0.7h-0.8l-10.2-10.3v-0.7h-0.8l-2.4-2.9-5.4-5.7-2.4-2.8-4.7-5.3-2.8-3.6-7.8-9.9-4.3-5.7-4.9-7.1-3.6-5.3-4.3-6.8-6.3-10.6-2.2-3.9-4.9-9.6-3.2-6.8-1.8-3.5-3.6-7.8-1.7-4.6-1.8-3.6-1.8-5.3-1.4-3.2-6-18.1-1.8-6.4-1.4-6.4-1.1-4.6-1.4-6.4-2.2-10.3-2.1-14.5-1.4-13.5-1.1-16.4v-19.1l0.7-13.5 0.8-10.3 0.3-1.4 1.1-11 2.5-15.3 3.2-15.3 2.8-10.3 2.8-9.2 2.9-8.5 3.9-9.9 4.2-10 4.3-9.2 5-10.3 4.9-9.2 9.6-16 3.9-6 3.9-5.7 5-6.8 3.9-4.9 2.8-3.6 4.7-5.7 3.2-3.5 2.4-2.9 3.9-4.2 2.5-2.5 2.5-2.8 10-10 2.8-2.5 2.5-2.4 2.8-2.5 3.6-3.2 3.9-3.6 7.8-6.4 6-4.9 5-3.9 6-4.7 6.8-4.9 6.7-4.6 5-3.6 12.4-8.2 6.7-4.2 8.2-5.3 7.5-5 7.1-5 6.7-4.9 5-4 5.7-4.6 4.6-3.9 3.5-3.2 2.9-2.5 3.5-3.1 4.6-4.3 9.3-9.2 2.4-2.9 3.6-3.9 2.5-2.8 3.9-4.6zm-0.4 33.3l-2.5 2.9-3.1 3.2v0.7h-0.8l-2.4 2.8-5.7 5.3-2.5 2.5-2.8 2.5-3.6 3.2-2.8 2.5-6.1 5-5.7 4.6-4.2 3.2-6.4 4.6-5 3.5-8.1 5.7-5.7 3.6-21.7 14.2-6.4 4.2-6 4.3-6.4 4.6-4.6 3.5-6.4 5-5.7 4.6-4.6 3.9-3.9 3.2-5 4.6-2.8 2.5-4.6 4.3-4.3 3.9-7.4 7.5-2.5 2.8-5.7 6-4.3 5-4.9 6-10.3 13.5-5 7.5-3.9 6-2.1 3.6-3.6 5.6-2.1 4.3-4.3 7.8-3.2 6.8-2.4 5.3-1.8 3.9-2.9 7.1-1.4 4.2-3.2 2.2-4.6 2.8-5.7 4.3-3.5 3.2-2.5 3.2-1.8 3.5-0.7 2.5v4.3l1.8 6.7 2.5 5.3 2.8 6.1v2.4l-1.8 8.9-1 8.2-1.8 15.6-0.7 11.4v23.4l0.7 11.3 1.4 14.6 2.2 14.6 2.4 14.9 1.1 5.3 1.4 5.3 2.2 7.5 1.7 5.6 2.9 8.6 1.7 4.6 1.8 5 1.8 3.9 4.3 9.9 4.2 8.9 5 9.9 5 8.5 3.9 6.4 1.7 3.2 6.4 9.6 4.6 6.4 5 6.7 4.6 5.7 3.9 4.6 3.2 3.9 3.2 3.6 2.5 2.8 4.6 5 2.5 2.8 12.1 12.1 2.8 2.5 3.9 3.9 3.9 3.2 5.3 4.6 3.9 3.2 3.6 2.8 5.7 4.7 5.7 4.2 6 4.6 4.3 3.2 4.2 2.9 7.1 4.9 6 4.3 12.5 8.2 3.9 2.4 1.4 0.4 1.1-2.8 3.2-9.3 0.7-0.7-0.7 3.6-2.9 8.5-0.3 2.1 1 0.4v0.7l6.4 3.5 9.6 6.4 5.7 3.6 3.9 2.8 8.5 5.7 6 4.2 17.4 12.1 1.5-0.7 5.6-3.9 6.1-4.3 8.5-5.6 5-3.6 10.2-6.7 5.7-3.6 7.8-5 6.8-4.2 8.9-5.7 4.6-3.2 7.1-4.6 5.3-3.6 5.7-3.9 6-4.2 13.5-10 5-3.9 3.5-2.8 5-3.9 5-4.3 3.9-3.2 3.5-3.5 2.9-2.5 4.2-3.9 2.5-2.5 2.8-2.5 10.3-10.3 2.5-2.8 4.3-4.6 3.2-3.9 4.6-5.3 3.2-4 5-6.3 4.9-6.8 4.6-6.7 4.3-6.4 4.3-6.8 5.3-9.5 8.5-16.7 4.6-9.6 3.9-9.6 1.4-4.3 1.1-2.8 1.8-5 4.2-13.1 2.9-10.7 2.8-14.2 1.1-6 2.1-15.3 1.4-15.6 0.4-7.8v-19.9l-0.7-13.8-1.8-17.4-1.8-11.7-2.1-10-2.1-8.8-1.5-6.1-2.1-6.7-1.8-6-1.7-5.4-1.8-4.2-2.1-6.1-2.2-5.3-1.7-4.2-1.8-3.9-4.6-10-2.9-5.3-1.7-3.6-4.7-8.1-5.3-8.9-5.7-8.9-4.2-6-3.2-4.3-4.6-6-2.9-3.6-3.9-4.6-2.5-2.8-3.9-4.3-2.5-2.8-3.1-3.2-2.5-2.8-8.2-8.2-2.8-2.5-2.5-2.5-2.9-2.5-4.6-4.2-6-5-5.7-4.6-5-3.9-6.4-5-6.7-5-8.2-5.6-7.8-5.4-5.3-3.5-11.7-7.5-8.9-5.6-7.1-5-7.4-5-7.1-4.9-5.7-4.3-3.9-3.2-5.7-4.6-4.3-3.9-3.9-3.2-15.6-15.6-1.8-2.2z"/><path class="d" d="m575.4 476h6.8l-3.6 8.9-4.2 9.2-5.7 11.4-3.6 6.7-3.9 7.1-3.2 5.4-2.5 3.9-4.2 6.4-3.9 5.6-4.6 6.4-3.9 5-2.9 3.5-3.9 4.7-3.2 3.9-4.6 5.3-4.3 4.6-3.9 4.3-9.5 9.5-2.9 2.5-3.2 3.2-2.8 2.5-4.3 3.9-3.9 3.6-3.9 3.2-5.7 4.6-4.9 3.9-4.7 3.5-5.6 4.3-6.8 5-7.1 4.9-5.7 3.9-4.2 2.9-8.2 5.3-8.5 5.7-7.8 4.9-14.6 9.3-6.7 4.2-9.9 6.8-13.5 9.2-6.1 4.3-2.8 2.1-1.8-0.7-11.7-8.2-14.2-9.9-13.8-9.2-7.1-4.7-5.4-3.5 0.7-3.2 2.5-6.7 1.8-4.3 4.3-9.6 2.8-5.7 3.2-5.6 4.3-5.7 3.9-4.3 3.5-3.5 2.9-2.5 0.3 0.7-5.3 15.6-3.2 6.8-0.4 1v4.6l1.8 3.6 3.2 2.8 5.3 2.5 6.8 2.5 5.3 1.1h6.4l6-1.5 6.4-2.8 4.6-3.2 2.5-2.5 1.4-3.2v-3.2l-2.1-5.7-4.3-9.2-2.8-8.5-2.1-3.6-3.2-2.8 0.3-1.8 1.1-2.5 0.7-2.4v-6.4l-1.8-5.4-2.1-3.9-1.4-2.1 6-4.6 6.4-5 3.6-2.8 2.8-2.1v0.7l1.1-0.4 13.1-0.3 8.5-1.5 6.4-1.7 9.6-4.3 9.2-5 7.1-4.6 6.8-4.6 4.9-3.5 5.7-3.9 5-4 4.6-3.9 10.6-8.1 6.1-4.6 6.4-4.7 6.4-3.9 5.3-3.2 4.2-2.4 5.7-2.9 8.5-3.9 9.6-3.9 11.7-3.9 9.3-2.5 11.3-1.8 8.9-1z"/><path class="b" d="m184.2 416l1.5 0.4 2.4 7.4 3.6 8.6 2.1 5.3 3.2 7.8 2.1 4.6 3.6 7.8 2.1 4.3 3.9 8.1 2.9 5.7 5.6 10.7 5 8.5 4.3 7.5 4.2 6.7 3.6 5.7 5.7 8.1 4.2 6.1 5 6.4v0.7h0.7l1.8 2.5v0.7h0.7l3.2 3.9 3.9 4.6 3.9 5 3.2 3.5 2.1 2.8 3.6 4 3.2 3.9 3.2 2.8 2.4 2.8 5 5.4 7.1 7.1 2.9 2.4 2.4 2.5 2.9 2.5 4.6 3.9 6.7 5 8.2 5.3 1.8 1.1-2.9 5-5.3 8.8-4.2 8.2-3.6 8.5-3.9 11.7-1.1 0.4-3.5-2.2-14.9-9.9-6.8-4.6-6.4-4.6-3.2-2.1-4.2-3.2-7.5-5.7-4.6-3.6-5.7-4.6-3.5-2.8-3.9-3.2-5.3-4.6-4.7-3.9-4.6-4.7-2.8-2.4-12.1-12.1-2.5-2.9-3.9-4.2-3.2-3.6-3.2-3.9-4.2-4.9-3.9-5-3.6-4.6-4.9-6.8-5-7.1-4.3-6.7-2.1-3.6-4.6-7.8-4.6-8.1-7.5-14.9-5.3-12.5-2.1-5.3-2.2-5.7-1.7-4.9-2.9-8.2-2.5-8.9-1.4-6v-0.7l8.9-2.9 8.9-3.2 9.2-3.9 5.7-2.8 5.3-2.8 5-2.9 3.2-2.1 3.9-2.1z"/><path class="e" d="m358.9 162.6h9.6l12 1.8 7.1 1.7 7.8 2.9 7.1 3.2 6.8 3.5 6.4 4.3 4.6 3.5 3.9 3.6 2.8 2.5 4.3 4.2 2.8 3.6 3.6 4.9 3.5 5.7 3.2 6.1 3.9 9.9 1.5 4.6 1.7 10.7 0.4 4.2v17.8l-1.4-0.7-5-3.9-6-5-5-3.9-5.7-4.3-6.4-4.6-7.4-4.6-9.3-5-6-2.5-2.8-1-5.4-1.8-9.5-2.1-7.5-1.1h-13.1l-6.8 1.1-8.5 1.7-9.2 2.9-4.6 1.8-5.4 2.4-7.8 4.3-6 4.3-4.6 3.5-1.4 1.4-2.2-0.7-9.2-5-5-2.8-5.7-2.8-8.8-4.6-1.8-1.5 1.8-5.3 3.2-7.1 4.6-8.2 2.5-3.9 2.5-3.2 3.9-4.6 3.2-3.5 4.9-5 5-3.9 6.4-4.6 6-3.6 5.7-2.8 7.1-2.8 8.2-2.5 8.1-1.8z"/><path class="f" d="m195.2 263.8h19.6l10.6 1.4 11 2.5 5.7 1.7 9.2 3.6 5.7 3.2 1.8 0.7 0.7 1.8 0.7 1.4 1.1 0.3 0.7 1.5-0.4 1-2.5 1.1h-4.9l-11.7-0.7-10-0.4-5.3-1-8.2-1.8-5.3-1.4-6-1.1h-3.2l8.5 1.4 5.7 1.4 6.4 2.2 5.6 2.8 6.8 3.9 4.2 2.8 4.3 3.2 3.6 2.9 7.8 6.4 4.6 3.9 4.9 3.5 6.1 3.2 7.1 2.9 5.3 2.4 3.9 2.2v1.4l-2.8 1.4h-12.8l7.1 4.3v1l-1.8 1.5-6.7 4.6-7.5 4.9-5.7 3.2-5.6 2.9-6.1 2.5-6.4 1.7-9.2 1.5h-9.9l-5.7-0.4-10-2.1-9.2-2.9-7.8-3.2-7.1-3.5-8.2-5-6-4.2-3.9-3.2-5.3-5-3.2-3.2-3.2-3.9-2.5-3.2-4.3-6.4-4.2-7.4-1.4-2.9-1.8-5.3-0.4-3.6 3.9-3.5 5.4-3.9 6.7-3.9 7.5-3.6 4.6-2.1 4.2-1.4 2.5-1.1 5.7-1.8 3.2-1 3.9-0.7 5.3-0.7z"/><path class="g" d="m217.6 388.3l1.1 0.4 2.5 6.7 3.5 9.3 1.8 3.9 2.1 5.3 4.6 10.3 1.8 3.6 1.4 3.5 2.1 3.6 1.1 2.4 3.6 6.4 2.8 5.7 6 11.4 9.6 15.9 4.6 7.8 5 7.9 3.6 5.6 4.6 6.8 9.2 12.8 5.7 7.4 2.8 3.6 5 6 5 5.3 4.2 4.6 5 5.4 4.2 4.2 2.9 2.5 5 5 4.9 3.9 4.6 3.5 7.1 4.6 5.4 3.2 0.7 0.4v0.7l-3.6 2.5-1.7 1.8h-0.8l-1 3.2-1.1 1.7h-0.7l-0.7 1.8-1.8 2.9-3.2 3.1-2.8 2.5-4.3 3.9-2.1 1.8-0.4-2.1-2.4-1.8-1.8-1.1-2.9-1.7v-0.7l-2.1-0.8-4.6-3.1-1.4-0.8-0.4-0.7-1-0.3v-0.7l-1.5-0.7-3.5-2.5-1.8-1.8-4.3-3.9-2.8-2.5-3.9-3.9-2.5-2.8-9.2-9.3-2.5-2.8-4.3-4.6-2.4-2.9-3.9-4.6-3.9-4.9-4.3-5.4-3.6-4.6-4.9-6.4-5.7-7.4-5-7.1-3.2-5.4-3.5-5.6-3.2-5.4-2.5-4.2-6.4-11.7-3.9-7.1-5.7-11.4-3.2-7.1-2.5-5-2.4-6-1.8-4.3-2.9-6.7-1.7-3.9-4.6-12.1-1.1-3.2 0.3-1.7 3.9-3.6 4-3.2 4.9-4.2 4.6-4 5-4.2 2.8-2.5z"/><path class="h" d="m595.3 409.6h2.5l0.3 0.4-0.3 3.6-1.1 7.4v4.3l-2.5 11.3-1.7 8.2-3.2 11-5.4 16-1.7 4.2-15.3 0.7-14.2 1.8-7.1 1.4-8.2 2.2-11.7 3.9-12.8 5.3-9.5 4.6-8.2 4.6-6.4 3.9-5.3 3.6-6.8 4.9-4.9 4-6.1 4.6-11.3 9.2-7.1 5-6.8 4.6-4.6 3.2-7.8 4.9-8.5 4.7-9.6 4.2-6.4 1.8-8.5 1.4-14.2 0.4 0.7-1.5 1.4-0.7 0.4-1 1.8-1.8 3.5-3.2 3.6-4.6h0.7l0.7-1.4 3.2-4.3 4.9-7.4 2.9-4.7 2.1-3.2 5.3-10.6 1.1-2.8 0.4 0.7 3.1-0.4 10.7-2.8 10.6-3.2 10.3-3.6 5.7-2.5 6.8-3.5 5.3-3.6 4.6-3.5 5-3.9 5.3-4.6 3.9-3.2 5.3-4.6 3.6-3.2 10.6-10.7 0.4-0.7h0.7v-0.7l2.8-2.5 6.1-5.7 5.3-4.6 4.6-3.9 5-3.9 5.3-4.2 5.3-3.6 5.7-3.5 6.4-3.6 3.9-1.8 6-2.8 4.3-1.8 6.7-2.5 5.7-1.7 8.2-2.2 6.4-1.4z"/><path class="i" d="m364.6 11.7l1.4 0.7 3.5 3.9 2.9 3.6 1.7 2.1 1.5 1.1v0.7h0.7l3.2 3.9 2.5 2.5v0.7h0.7l2.5 2.8 4.9 5 0.7 0.3v0.8l1.5 0.7 2.8 2.8 2.5 1.8v0.7h0.7l1.8 1.8 1.7 1.4v0.7l1.8 0.7 2.1 1.8v0.7l2.2 1.1v0.7l1.7 0.7 3.6 3.2 5.3 3.5 3.2 2.5 5 3.6 5.3 3.5 3.6 2.5 6.4 4.3 5.6 3.5 9.6 6.4 6.8 4.2 5.3 3.6 6 4.3 8.2 5.6 3.2 2.2v0.7l1.8 0.7 3.1 2.5 5 3.9 2.5 1.8v0.7l1.4 0.7 5 3.9 4.6 3.9 2.8 2.1v0.7l1.1 0.4v0.7l1.4 0.7 5.4 5 2.4 2.1 1.5 1.4v0.7l1.4 0.7 13.5 13.5v0.7l1.4 0.7 3.2 3.6 2.5 2.8 2.8 3.2v0.7h0.7l3.2 3.9 4.3 5.4 4.6 6 5.3 7.1 4.6 6.7 2.9 4.7 2.5 3.9 4.2 6.7 3.6 6.4 3.5 6.7 2.9 5.7 2.8 5.4 2.8 6.3 4.3 10 3.9 10.3 3.5 9.9 2.9 8.9 4.2 14.5 2.2 10 0.7 4.2 1.1 5.7 0.3 4.6 0.7 1.8-0.3 4.3 1 1.4v4.6l1.1 3.9v3.2l-0.4 2.1 0.7 4.7 0.8 2.1 0.7 15.2v11l-0.7 5.4 0.3 2.8v11l-1.1 3.9-0.3 11.4-1.8 14.2-0.7 2.8-0.7 4.3-2.1 11.3-2.2 9.6-4.6 14.9-4.2 12.5-3.6 8.8-5 11.7-5.6 11.4-3.2 6.8-2.9 6-1.7 2.8-4 7.1-8.5 13.9-4.9 6.7-2.2 3.2-1.4 1.8-1.1 1.8h-0.7l-0.7 1.4-3.2 4.2h-0.7l-0.7 1.8-3.2 3.9-4.6 5.7-2.5 3.2h-0.7l-0.7 1.4-3.9 4.3-0.4 0.7h-0.7l-0.7 1.4-4.2 4.6-2.5 2.9h-0.7l-0.7 1.4-8.6 8.5h-0.7l-0.3 1.1-2.9 2.4-7.1 6.4h-0.7l-0.3 1.1-2.9 2.5-3.2 2.8h-0.7v0.7l-3.5 2.9-4.6 3.5-4 3.2-4.2 3.6-3.9 2.8-6.1 4.6-3.5 2.5-4.6 3.2h-0.7v0.7l-3.9 2.5-6.1 4.3-3.9 2.4-9.6 6.4-7.1 4.6-7.8 5-5.6 3.9-6.8 4.3-5.3 3.5-3.9 2.5-7.1 5-7.5 5h-0.7v0.7l-5.3 3.5-5.3 3.9-4.3 3.2-4.6 3.6-6 4.6-5 2.8-3.2-0.7-5.7-4.6-4.2-3.2-6.1-4.6-4.9-3.6-6.4-4.6-5-3.5-7.5-5-5.6-3.9-3.9-2.1-6.1-3.9-6.7-5-3.6-2.5-6.4-3.9-13.8-9.2-3.6-2.5-3.9-2.5-4.9-3.2v-0.7l-1.8-0.7-4.3-3.2-6-4.3-5.7-4.2-2.5-1.8v-0.7l-1.7-0.7-3.9-3.2-3.2-2.5v-0.7l-1.8-0.7-2.5-2.1-0.7-0.4v-0.7l-1.4-0.7-3.2-2.5-1.8-1.8-4.3-3.9-3.9-3.2-1.4-1v-0.8l-1.4-0.7-4.3-4.2-2.8-2.5v-0.7l-1.4-0.7-2.5-2.9-9.6-9.6v-0.7l-1.1-0.3v-0.7l-1-0.4-2.5-2.8-5-5.4v-0.7h-0.7l-3.9-4.9v-0.7h-0.7l-2.8-3.9-1.8-2.5v-0.7h-0.7l-3.2-4.3-0.4-1.1h-0.7l-4.2-5.6-1.5-2.2v-0.7h-0.7l-5.7-8.5-7.4-12.4-2.1-3.9-2.9-5-2.5-3.9-2.8-5.3-2.8-6.1-2.9-5.6-1.8-4.3-1.4-3.6-0.7-2.4-1.8-2.9-1.7-4.2-1.1-3.6-1.8-3.9-2.5-7.5-1.7-4.9-2.2-6.4-1.7-7.1-1.8-9.2-1.8-7.1-2.1-10.3-0.7-5v-3.2l-1.1-4.3v-2.4l0.4-1.8-1.5-4.3-0.3-6.7-0.7-3.6v-15.6l-0.7-8.9v-12l0.7-12.5 1-7.1 0.7-6.7 0.4-0.7 0.4-6 1-7.5 2.5-13.1 2.1-11.4 2.2-8.2 5.6-17 4.7-12.1 2.1-4.6 3.9-8.5 2.5-5.3 3.9-8.2 4.6-8.2 2.1-3.5 4.3-7.8 2.1-3.2 3.9-6.4 2.9-4.3 3.9-5.6 2.8-3.9 7.1-9.3 3.9-4.9 2.9-3.2 3.1-3.9 3.2-3.6 2.2-2.5h0.7l0.7-1.4 3.2-3.2 2.5-2.8 3.5-3.2 2.5-2.2 0.4-0.7h0.7v-0.7l2.8-2.5 4.3-4.2 2.8-2.5 4.6-3.9 2.9-2.5 4.6-3.5 3.9-3.2 5-4.3 3.5-2.8 4.6-3.6 6.4-4.6 2.5-1.8h0.7v-0.7l5.3-3.5 5.7-3.9 3.6-2.5 6.3-4.3 6.1-3.9 11-7.1 7.4-5 6.4-4.6 3.9-2.5 4.6-3.5 3.2-2.5 2.5-2.1h0.7v-0.7l4.7-3.6 3.5-2.8 1.8-1.8 4.6-4.3 6-5.6 3.6-3.2 4.2-4.3 0.4-0.7h0.7v-0.7h0.7v-0.7h0.7l0.7-1.4 5.4-5.7 2.4-2.9 2.2-2.5 1.7-1.4 1.8-2.1 3.2-2.1-0.3 1.4-4.3 5-3.2 3.5-2.5 2.8-6.4 7.1-9.9 10-2.8 2.5-4.7 4.2-2.8 2.5-5 4.3-4.9 3.9-5.7 4.6-6.8 5-7.1 4.9-11.7 7.8-6.7 4.3-8.2 5.3-12.8 8.5-6 4.3-5 3.6-6.7 4.9-8.9 7.1-3.9 3.2-6 5-4.6 3.9-3.6 3.2-4.6 4.3-2.9 2.4-2.4 2.5-2.9 2.5-9.6 9.6-2.4 2.8-3.2 3.2-2.5 2.9-3.6 3.9-3.9 4.9-3.5 4.3-4.6 6-4.3 5.7-3.9 5.7-3.9 6-4.6 7.5-5.4 9.2-4.6 8.2-4.6 9.2-5.3 11.7-4.6 10.7-4.6 12.4-2.9 8.5-1.8 6-3.1 11.8-3.6 17.7-1.8 11.4-1 11-0.4 1.4-1.1 15.3-0.3 8.5v19.1l1.1 16.4 1.7 16 2.2 14.2 2.1 9.5 1.1 5 1.7 8.2 1.4 5.3 2.9 9.2 3.5 10.7 1.8 4.9 1.8 4.3 1.8 4.6 1.4 2.9 1.8 4.6 2.4 5.3 3.2 6.7 2.9 5.7 4.6 8.9 2.1 3.5 5 8.6 5 7.8 2.8 4.2 5 7.1 4.9 6.8 4.7 5.7 3.5 4.6 3.9 4.6 3.2 3.9 5.3 5.7 2.5 2.8 2.1 2.1v0.8h0.8l2.4 2.8 6.8 6.7 1 0.7v0.8h0.8l7.8 7.8 2.8 2.5 4.3 3.9 3.9 3.2 3.5 3.1 5 4 4.6 3.9 4.3 3.2 6.4 4.9 6 4.3 6.4 4.6 8.1 5.7 10 6.7 4.2 2.9 24.9 16.3 19.2 12.8 12.4 8.5 6.4 4.6 7.1 5.3 4.6 3.6 5.7 4.6 1.4 1.1 2.1-2.5 4.3-3.2 5.3-4.3 7.1-5.3 6.4-4.6 7.1-5 15.3-10.3 8.8-5.7 6.1-3.9 8.8-5.7 5.4-3.5 8.8-5.7 7.8-5.3 14.2-9.9 6.8-5 4.3-3.2 6.3-5 4.7-3.5 4.6-3.9 3.5-2.9 5-4.2 10.6-9.6 5.4-5 5.3-5.3h0.7v-0.7l7.1-7.1 2.5-2.9 6.4-7.1 3.9-4.6 3.5-4.2 3.9-5 5-6.4 9.2-12.8 3.9-6 4.3-6.8 5-8.5 3.2-5.7 4.6-9.2 2.8-6 2.9-5.7 2.4-6 1.5-2.9 2.1-5.7 1.8-4.2 1.7-5 1.1-2.8 2.5-6.8 1.8-5.6 2.5-8.6 2.1-8.5 1.8-8.1 1.4-8.9 1-5.7 1.8-14.2 1.1-12.8 0.3-6v-31.3l-1-14.9-1.4-12.4-2.5-16-2.9-13.5-2.8-11-4.6-15.2-4.6-12.8-4.3-10.6-4.3-9.6-6-12.8-4.6-8.5-5.7-9.6-5.7-9.2-6-8.9-4.6-6.4-5-6.4-4.6-5.7-3.2-3.9-3.9-4.2-2.5-2.9-4.2-4.6-5-5-2.5-2.8-5-5-2.8-2.5-5-4.9-2.8-2.5-5-4.3-3.5-3.2-3.9-3.2-5.7-4.6-5-3.9-4.6-3.5-5.7-3.9-6.4-4.7-6.7-4.6-4.6-3.2-10.3-6.7-8.9-5.7-7.1-4.6-7.5-5-5.6-3.9-6.1-4.2-7.4-5.7-5-3.9-3.9-3.2-5.3-4.6-5.4-5-3.5-3.2-8.5-8.5-2.5-2.9-5-5.3-3.2-3.9-4.2-5.3-0.4-1.4z"/><path class="j" d="m191 277.2h8.5l9.9 1.1 7.8 1.8 7.9 2.5 5.6 2.8 6.8 3.9 4.2 2.8 4.3 3.2 3.6 2.9 7.8 6.4 4.6 3.9 4.9 3.5 6.1 3.2 7.1 2.9 5.3 2.4 3.9 2.2v1.4l-2.8 1.4h-10.3l-3.2-0.7-5.7-1.8 0.4 1.8-1.5 1.4-4.2 1.8-6.1 3.2h-1v0.7h-1.1v0.7l-3.2 1.8-4.2 0.7-2.5-0.4-3.2-1.7-2.9-1.4-1.7-0.8-4.3-4.9-5.7-2.9-5.7-5.3-2.1-1.4-3.9-3.6-3.9-2.4-3.2-1.8-2.5-1.1-3.9-2.1-3.2-2.1-4.6-3.6-5-2.1-6.7-3.6-1.1-0.3v-0.7l-2.8-0.8v-0.7l-1.4-0.3-1.1-2.5h-19.2l0.4-1.1 1.8-1 3.9-1.5 4.6-2.1 5-1.8 6.7-1.7z"/><path class="h" d="m307.1 407.5l0.7 1.1 1 3.5 4.3 8.6 3.5 5.6 2.9 3.9 4.2 5 3.9 3.9 5.4 3.9 6 3.6 11 4.9 11.4 3.9v0.7l3.2 0.8 5.6 1.7 6.8 2.2 6.7 1.4 6.1 0.7h19.1l11-1.1 10-1.7h1.8l-2.2 2.4-3.5 4.7-1.8 2.4h-0.7l-1.4 1.8-0.4 1.1-2.1 2.5-0.4 1-1 1.1-2.2 4.3-3.9 6.7-2.8 5.7-3.2 5.7-2.5 2.8-1.1 1.4-3.9-0.7h-2.8l-4.6-2.5-3.2-1-3.6-1.5-3.2-1.4-6.7-3.5-1.8-2.2-3.2-1.4-1.4-1.8-3.2-2.1v-0.7l-2.5-0.7-1.7-1.1v-0.7l-1.1-0.3-1.1-1.8-2.8-3.6-0.7-1.4-1.4-1v-0.8l-1.5-0.7-1.7-1.4-1.1-0.3v-0.8h-0.7v-0.7l-2.1-0.7-3.6-1.7-5.3-4-3.9-3.1v-0.8l-1.4-0.7-10-9.9-3.9-5-3.5-5.3-3.9-7.5-1.5-3.9-1.7-9.2-0.7-5.7z"/><path class="k" d="m155.5 287.9l0.3 0.7 13.5-0.4h5.7l1.4 2.9 1.1 0.3v0.7l1.8 0.4 1 0.4v0.7l1.8 0.3 6.7 3.6 5 2.1 4.3 3.6 2.8 1.7 3.9 2.2 3.2 1.4 5 2.8 3.9 3.6 2.8 2.1 2.9 2.5 3.9 3.5 5.7 2.9 3.2 3.5 1 1.4 2.5 1.1 3.2 1.4 2.5 1.4 2.8-0.3 3.2-0.4 2.5-1.4h0.7v-0.7h1.1v-0.7l6.7-3.2 3.2-1.4 2.1-1.1 0.4-1.4-0.4-1.4 4 1 2.8 1.1v0.7l7.1 4.3v1l-1.1 0.8-1-1.1h-1.1l-0.4 1.1h-1v0.7l-2.2 0.7-0.3 1-4.3 2.9-2.8 1.8-4.6 2.8h-0.7l-0.4 1.1h-0.7l-0.7 1.4h-1.1v0.7l-3.2 0.7-1 1.1-5 1.7-2.1 0.7-7.5 2.2-8.9 1.4h-7.4l-4.6-1.4-2.9-1.1-4.2-1.8-3.9-2.8-0.7-1.8v-1.8l-2.2-1-0.3-2.5-0.4-1.4-2.8-0.4-1.4-1v-0.8l-1.8-0.7-2.2-1.7-0.7-1.1-1.7-1.1-3.6-2.5-0.7-1.4-1.4-0.7-0.4-1-2.1-0.8-0.4-1-1-0.4-1.1-1.8v-0.7l-1.8-0.3-4.2-3.2v-0.7h-0.7v-0.7l-1.4-0.4v-0.7l-1.1-0.4-1.1-1.7v-0.7l-1.8-0.7-1.4-1.5-1-1.4v-0.7h-1.5l-1.4-1.4-1.8-1.1-1.7-1.4-1.4-1.8-3.2-2.5-0.8-1v-1.1l-1-0.3-0.7-1.5v-1.7l0.7-0.8 0.7-1.7v-1.1l-1.1-0.3z"/><path class="l" d="m154.4 384.8l10.7 0.4 7.1 1 5.3 1.8 5.7 3.2 2.8 3.2 1.8 3.2v2.1l-2.1 2.8-1.5 0.8-0.7 1.4-1.4 1.4-1.1 0.4-1.7 1.7-1.8 0.7-1.8 1.5h-1v0.7l-2.9 2.1-7.1 4.3v0.7l-9.6 4.9-4.9 2.2-3.9 1.7-10.7 3.9-2.1 0.4-1.8-0.7-1.1-1.8-2.1-14.2-1.1-9.9-0.7-8.2-0.7-7.4 0.4-0.8 5.7-1 2.4-0.4 1.5-0.3 8.1-1.1z"/><path class="l" d="m183.2 418.9l1.7 0.7 1.1 1.4 1.1 3.2v2.1h0.7l0.7 2.5h-0.7l0.7 4.6 0.7 4.3-0.4 1.1-1.4 0.3-1 1.8-1.8 0.7v0.7l-2.8 2.5-2.9 1.8-2.5 2.5-2.5 1.7-0.7 1.8h-2.1l-0.7 2.5-1.8 1.8-2.1 0.3-3.9 2.1h-0.7v0.8l-2.5 1.7-2.5 1.1-3.2 1.8h-0.7l0.4 1.4-1.8 0.7-1.4 1.4-2.5 0.7h-2.9l-2.1-2.8-2.8-7.1-1.1-3.6v1.1l1.1 3.6h-0.7l-3.2-9.6-1.5-6.1v-3.5l-1-1.1 9.6-3.2 2.8 0.4 8.5-2.9 4.3-1.7 6.7-3.2 5.7-3.2 7.1-4.3 3.9-2.5z"/><path class="m" d="m155.5 287.9l0.3 0.7h10.3l1.5 3.2v0.7l1.4 0.4 2.8 1.7v0.7l1.8 0.4 3.2 2.1 1 0.4v0.7l2.2 0.7 0.3 1.1h0.7l1.5 1.4v0.7l1.4 0.7 1.4 1.8 1.4 2.1 5 3.2 2.8 3.9 1.4 0.7v0.7l2.2 0.7 8.9 8.9 2.4 1.1 1.1 0.7v0.7l2.1 0.7 4.3 2.9 2.8 2.8v0.7l0.7 0.4-0.3 0.7h0.7v1l1.4 0.4 1.4 1.8 2.5 1h0.7v0.7l1.1 0.4 0.7 0.7 6 0.4 3.6 1.7 1.1 2.5 1.4 0.7 6.4-0.3 3.2-0.7 4.6-1.8 5.7-2.9 0.7 0.4-1.1 0.4-0.7 1.4h-1.1v0.7l-3.2 0.7-1 1.1-5 1.7-2.1 0.7-7.5 2.2-8.9 1.4h-7.4l-4.6-1.4-2.9-1.1-4.2-1.8-3.9-2.8-0.7-1.8v-1.8l-2.2-1-0.3-2.5-0.4-1.4-2.8-0.4-1.4-1v-0.8l-1.8-0.7-2.2-1.7-0.7-1.1-1.7-1.1-3.6-2.5-0.7-1.4-1.4-0.7-0.4-1-2.1-0.8-0.4-1-1-0.4-1.1-1.8v-0.7l-1.8-0.3-4.2-3.2v-0.7h-0.7v-0.7l-1.4-0.4v-0.7l-1.1-0.4-1.1-1.7v-0.7l-1.8-0.7-1.4-1.5-1-1.4v-0.7h-1.5l-1.4-1.4-1.8-1.1-1.7-1.4-1.4-1.8-3.2-2.5-0.8-1v-1.1l-1-0.3-0.7-1.5v-1.7l0.7-0.8 0.7-1.7v-1.1l-1.1-0.3z"/><path class="n" d="m191 277.2h8.5l9.9 1.1 7.8 1.8 7.9 2.5 5.6 2.8 6.8 3.9 4.2 2.8 4.3 3.2 3.6 2.9 7.8 6.4 4.6 3.9 4.9 3.5 6.1 3.2 7.1 2.9 5.3 2.4 3.9 2.2v1.4l-2.8 1.4h-10.3l-3.2-0.7-5.3-1.8-6.8-3.5-5.7-4.3-4.6-3.9-7.8-6.4-7.1-5.3-5.7-3.2-8.1-3.9-5.4-1.8-8.1-1.7-8.2-1.1-4.3-0.4h-15.6l-17.7 1.1h-6.8l0.4-1.1 1.8-1 3.9-1.5 4.6-2.1 5-1.8 6.7-1.7z"/><path class="o" d="m217.6 388.3l1.1 0.4 2.5 6.7 3.5 9.3 1.8 3.9 2.1 5.3 4.6 10.3 1.8 3.6 1.4 3.5 2.1 3.6 1.1 2.4 3.6 6.4 2.8 5.7 6 11.4 9.6 15.9 4.6 7.8 5 7.9 3.6 5.6 4.6 6.8 9.2 12.8 5.7 7.4 2.8 3.6 5 6 5 5.3 4.2 4.6 5 5.4 4.2 4.2 2.9 2.5 5 5 4.9 3.9 4.6 3.5 7.1 4.6 5.4 3.2 0.7 0.4v0.7l-3.6 2.5-1.4 1.4h-0.7l-1.4-1.4-3.6-2.5-6.7-5-3.6-2.8-4.9-4.3-7.5-7.4-2.8-2.5-5-5-3.2-3.9-3.9-4.2-3.2-3.9-4.3-5-2.8-3.6-3.5-4.2-5-6.8-4.6-6.4-4.3-6-5-6-4.2-6.1-4.6-7.8-3.9-7.1-3.9-6.4-3.2-5.3-3.2-6-3.9-8.2-6.8-13.1-3.2-5.7-2.5-5.7-1.7-3.9-2.5-5.7-3.2-7.4-4.3-8.5-3.9-9.3-1-2.1 0.3-1.4 2.8-2.5z"/><path class="p" d="m195.2 263.8h19.6l10.6 1.4 11 2.5 5.7 1.7 9.2 3.6 5.7 3.2 1.8 0.7 0.7 1.8 0.7 1.4 1.1 0.3 0.7 1.5-0.4 1-2.5 1.1h-4.9l-11.7-0.7-10-0.4-5.3-1-8.2-1.8-5.3-1.4-6-1.1h-3.2v0.3l-5-0.3h-8.5l-8.5 1.4-7.1 1.4-3.9 1.1h-1.8l1.8-1.8 3.2-1.8 1.4-0.7v-0.7l3.5-1.7 3.2-2.2 1.4-2.1v-1.4l-1.7 0.3h-2.9l-3.9 0.7-2.1 0.8-4.3 1-1.7-0.3 1.4-1.5 3.5-1.4 5.7-1.8 3.2-1 3.9-0.7 5.3-0.7z"/><path class="q" d="m240.3 221.5h2.9l7.1 2.1 7.1 2.9 6 2.8 7.8 4.3 10.3 5.3 6.7 3.6 8.6 4.2 5.6 2.5-2.1 2.5-4.6 4.6-5 6.7-2.5 3.6-2.1-0.7-9.9-6.1-7.1-4.2-5.7-3.9-5.7-4.6-2.5-2.5-2.8-2.5-2.5-2.8-1.8-1.8v-0.7l-1-0.4-4.6-6.4-1.5-2.8-1-3.6z"/><path class="o" d="m195.2 407.5h1.1l2.5 8.5 2.1 7.5 2.5 7.1 2.8 7.1 3.2 8.2 2.5 5.3 3.9 8.5 3.2 5.7 2.5 4.2 2.5 5 1.8 3.2 5.3 9.9 5 7.9 3.9 6 3.9 6.4 3.5 5.7 3.9 5.6 3.6 4.7 4.6 6 4.6 5.7 5 6 3.5 3.9 2.5 2.8 5.7 6.1 3.9 4.2 2.5 2.9 7.8 8.5 3.5 3.2 2.9 2.5 1.8 2.1 2.8 2.5 3.9 3.5 3.9 3.2 5.3 3.9 6.8 4.3 4.9 2.8 0.8 0.4-0.8 1.4-3.2 3.2h-0.3l-0.4-2.1-2.4-1.8-1.8-1.1-2.9-1.7v-0.7l-2.1-0.8-4.6-3.1-1.4-0.8-0.4-0.7-1-0.3v-0.7l-1.5-0.7-3.5-2.5-1.8-1.8-4.3-3.9-2.8-2.5-3.9-3.9-2.5-2.8-9.2-9.3-2.5-2.8-4.3-4.6-2.4-2.9-3.9-4.6-3.9-4.9-4.3-5.4-3.6-4.6-4.9-6.4-5.7-7.4-5-7.1-3.2-5.4-3.5-5.6-3.2-5.4-2.5-4.2-6.4-11.7-3.9-7.1-5.7-11.4-3.2-7.1-2.5-5-2.4-6-1.8-4.3-2.9-6.7-1.7-3.9-4.6-12.1-1.1-3.2 0.3-1.7z"/><path class="r" d="m351.1 602h5.3l4.3 2.2 2.4 2.5 2.2 3.5 3.2 7.8 1.7 5 0.8 2.5 2.1 3.2v2.8l-1.8 2.1-5 3.2-6.7 2.9-3.6 1h-3.1l-3.6-1-5.7-2.2v-0.7l-2.1-0.7-3.6-2.1-1.7-1.8-0.4-0.7v-2.1l2.5-4.3 1.8-5.7 2.1-6 2.8-6 2.5-3.2 1.8-1.4z"/><path class="s" d="m364.6 11.7l1.4 0.7 3.5 3.9 2.9 3.6 1.7 2.1 1.5 1.1v0.7h0.7l3.2 3.9 2.5 2.5v0.7h0.7l2.5 2.8 4.9 5 0.7 0.3v0.8l1.5 0.7 2.8 2.8 2.5 1.8v0.7h0.7l1.8 1.8 1.7 1.4v0.7l1.8 0.7 2.1 1.8v0.7l2.2 1.1v0.7l1.7 0.7 3.6 3.2 5.3 3.5 3.2 2.5 5 3.6 5.3 3.5 3.6 2.5 6.4 4.3 5.6 3.5 9.6 6.4 6.8 4.2 5.3 3.6 6 4.3 8.2 5.6 3.2 2.2v0.7l1.8 0.7 3.1 2.5 5 3.9 2.5 1.8v0.7l1.4 0.7 5 3.9 4.6 3.9 2.8 2.1v0.7l1.1 0.4v0.7l1.4 0.7 5.4 5 2.4 2.1 1.5 1.4v0.7l1.4 0.7 13.5 13.5v0.7l1.4 0.7 3.2 3.6 2.5 2.8 2.8 3.2v0.7h0.7l3.2 3.9 4.3 5.4 4.6 6 5.3 7.1 4.6 6.7 2.9 4.7 2.5 3.9 4.2 6.7 3.6 6.4 3.5 6.7 2.9 5.7 2.8 5.4 2.8 6.3 4.3 10 3.9 10.3 3.5 9.9 2.9 8.9 4.2 14.5 2.2 10 0.7 4.2 1.1 5.7 0.3 4.6 0.7 1.8-0.3 4.3 1 1.4v4.6l1.1 3.9v3.2l-0.4 2.1 0.7 4.7 0.8 2.1 0.7 15.2v11l-0.7 4.7-0.8 0.7-0.3-18.1-1.1-16.7-1.4-13.1-2.1-15-2.9-14.2-3.5-14.2-4.6-15.2-4.6-12.8-4.3-10.6-4.3-9.6-6-12.8-4.6-8.5-5.7-9.6-5.7-9.2-6-8.9-4.6-6.4-5-6.4-4.6-5.7-3.2-3.9-3.9-4.2-2.5-2.9-4.2-4.6-5-5-2.5-2.8-5-5-2.8-2.5-5-4.9-2.8-2.5-5-4.3-3.5-3.2-3.9-3.2-5.7-4.6-5-3.9-4.6-3.5-5.7-3.9-6.4-4.7-6.7-4.6-4.6-3.2-10.3-6.7-8.9-5.7-7.1-4.6-7.5-5-5.6-3.9-6.1-4.2-7.4-5.7-5-3.9-3.9-3.2-5.3-4.6-5.4-5-3.5-3.2-8.5-8.5-2.5-2.9-5-5.3-3.2-3.9-4.2-5.3-0.4-1.4z"/><path class="t" d="m411.8 293.2h6l3.2 0.7 4.3 1.8 4.6 3.2 3.5 3.2 5.4 5.3 3.2 2.5v0.7l-7.1-0.3-3.2 3.1-3.9 2.9-2.9 1.8-5 2.1-3.9 1.4-6.7 1.4h-7.1l-7.1-1.4-5.7-2.1-5.3-3.2-3.6-2.9-2.8-2.4 1.8-1.8h1.7l4 2.5 4.2 2.1 4.3 1.4 4.6 1.1 3.5 0.3h6.4l5.7-1 5.7-2.2 6-3.1 4.3-3.2h0.7l-2.5-2.9-3.5-2.8-3.6-1.8-2.1-0.7-2.9-0.4h-6.4l-5.6 1.5-8.6 2.8-1.7 0.4h-2.5l1.4-1.5 5-3.2 5.7-3.2 4.2-1.4z"/><path class="h" d="m203 277.2h4.7l6 1.1 5.3 1.4 4.3 1.1 3.9 0.7 5.7 1.1 9.6 0.3 12 0.7h5l1.1-0.7h1l-0.3-1.8-2.5-3.2-0.7-0.7 1.4 0.4 3.9 2.1 5 3.6 3.9 3.2 2.5 2.1 0.7 1.4 1 1.1 1.1 2.5v1h0.7l0.4 2.5-0.8 0.7h-1v-2.5l-1.8-1.7-0.3 1.4-5 1.8-6 0.7-3.6 0.7h-3.9l-4.6-1.8 2.8 1.4v0.7l2.9 1.5v0.7l4.2 0.7h3.9l-1 1-4.7 0.4-3.5-1.4-6.7-5-3.2-2.1-5.4-2.9-1.4-1-1.8-0.4-4.6-2.8-6.7-3.6-3.9-1.4-6.4-2.1-9.2-1.8-4-0.7z"/><path class="u" d="m224 265.5h2.8l9.6 2.2 5.7 1.7 9.2 3.6 5.7 3.2 1.8 0.7 0.7 1.8 0.7 1.4 1.1 0.3 0.7 1.5-0.4 1-2.5 1.1h-4.9l-11.7-0.7-10-0.4-5.3-1-8.2-1.8-5.3-1.4-6-1.1h-3.2v0.3l-5-0.3h-8.5l-8.5 1.4h-2.9l0.7-1.1 6.4-1.4 7.5-0.7h7.8l5.7-0.7 2.8 0.4 3.2-0.4 5.7-1.8 3.2-1 6.7-1.8 2.9-0.7 0.3-1.1-2.1-0.3-2.5-1.1-3.9-1.4z"/><path class="j" d="m253.8 225.4l1.8 0.4 7.1 3.2 9.9 5.3 8.9 4.6 6.7 3.6 8.6 4.2 5.6 2.5-2.1 2.5-4.6 4.6-5 6.7-2.5 3.6-2.1-0.7-9.2-5.7 0.3-1.1 3.2 0.4 3.2 1.1-0.3-1.8-1.1-0.7-1.8-3.6-0.3-1.4h-0.7l-1.5-2.1v-0.7h-0.7l-1.7-3.2-1.5-2.2-2.1-2.8-2.5-1.1-2.5-2.8-1.4-2.1-1.4-1.5-3.9-4.9v-0.7l-2.1-0.7-4.3-2.2z"/><path class="v" d="m362.4 78.8l1.8 0.7 1.4 1.8 0.4 2.1 0.3 16v46.5l-0.3 7.1-0.7 1.4-2.5 1.1-2.5-1.4-0.3-1.5-0.4-27.3v-43.7l0.7-1.4 1.1-1z"/><path class="w" d="m100.5 352.1h0.3v19.2l0.7 7.1v15.6l0.7 3.6 0.4 6.7 1.4 4.3-0.3 1.8v2.4l1 4.7v2.8l1.1 6.7 2.5 11.8 1 3.9 2.2 11 1.7 6.4 3.2 9.5 1.1 3.6 1.4 3.2 1.8 5 1.1 2.4 1.4 3.9 2.1 4.3 0.7 0.7 0.7 2.9 1.8 4.6 1.8 4.2 3.5 6.8 2.9 6 2.8 5 3.6 5.7 2.1 3.5 2.1 3.9 2.9 5 3.2 5.3 4.9 7.1v0.7h0.7l2.2 3.2 3.2 4.3 0.3 1h0.7l3.6 4.6v0.8h0.7l2.1 3.2 2.5 3.1v0.8h0.7l3.6 4.6 0.3 1h0.7l2.5 2.9 3.9 4.2 1.4 1.8 1.8 1.4 2.5 2.9 9.6 9.6 2.5 2.8 4.6 4.3 2.8 2.4v0.8l1.4 0.7 5.4 4.6 3.5 3.2 1.1 0.7v0.7l1.4 0.7 3.2 2.5v0.7l1.8 0.7 2.4 2.1 2.9 2.5 4.6 3.6 2.1 1.4v0.7l1.5 0.7 6.7 5 6.4 4.6 5.7 3.9v0.7l1.7 0.7 4.3 2.9 6 3.9 3.9 2.8 9.3 6 6.7 4.3 3.9 2.5 6.1 4.6 6 3.9 3.5 2.1 5.7 3.6 5 3.5 3.5 2.2 4.7 3.5 3.1 2.1 6.8 5 5 3.6 9.9 7.8 3.9 2.8 2.5 0.4 3.2-1.8 4.6-3.2h1.1l-3.9 3.2-4.3 2.5h-3.2l-3.9-2.5-3.5-2.8v-0.8l-1.8-0.7-3.6-2.8-5.7-4.3-3.5-2.5-3.9-2.8-3.6-2.5-6-4.2-4.3-2.9-3.9-2.1-7.4-5-5.7-3.5v-0.7l-1.8-0.7-1.4-1.1v-0.7l-1.8-0.7-3.5-2.5-6-3.9-5.7-3.6-3.6-2.5-3.2-2.1-8.1-5.3-7.8-5-4.7-3.5-1-0.7v-0.8l-1.8-0.7-2.8-2.1-0.7-0.3v-0.8l-1.8-0.7-4.6-3.5-5.4-3.9-3.2-2.1v-0.8l-1.7-0.7-4.3-3.9-3.5-2.8-3.6-3.2-5.7-5-3.9-3.2-7.8-7.8-1.8-1.4-2.4-2.8-1.8-1.8v-0.7h-0.7v-0.7l-1.1-0.4-5.7-5.7-1.8-1.4-2.4-2.8-0.7-1.5h-0.8v-0.7h-0.7l-2.5-2.8v-0.7l-1-0.4-3.2-3.9-3.2-3.5-3.6-4.6-1.4-2.2-2.8-3.5-2.5-3.2-3.5-4.6-4.3-6.1-3.2-4.2-2.5-4.3-2.1-3.2-2.1-3.9-4.7-8.1-3.9-6.8-4.2-8.2-2.9-5.3-2.5-5.7-1.7-4.6-2.9-5.7-2.8-6.7-2.5-6.7-2.8-8.9-2.5-6.8-2.5-9.5-3.6-16-1.4-7.1-1.7-10.3-1.1-9.2-1.1-7.1-1-12.1-0.4-10v-26.2z"/><path class="q" d="m180.3 287.2h15.6l10 1 8.9 1.8 6 1.8 5.7 2.5 0.3 1 2.5 1.5v0.7h0.7v0.7h0.7v1h0.7l1.5 1.8 1.7 1.4v1.1h0.8l1 1.8v1l-2.5 0.8-2.1-0.4-4.3-1.8-4.9-1.4v-0.7h-2.2v-0.7l-2.1-0.4-2.8-1.4v-0.7h-0.7l-1.1-1.1-1.4-1h-5.3l-1.5-1.1v-0.7l-3.2-0.7-3.5-1.4-5.3-2.5-1.8-0.4v-0.7l-2.1-0.3-1.5-1.8-7.8-0.4z"/><path class="x" d="m497.7 250.3l4.2 0.7 1.8-0.4 0.7 0.4 9.3 0.3 3.2 1.4 0.7 0.8v2.1l-1.8 1.8-21.7 0.3h-14.2l-16.3-0.3-1.8-1.1-0.7-0.7v-2.5l2.1-1.8 13.5-0.3 20.3-0.4z"/><path class="y" d="m211.2 411.4h4.6l2.9 1.1 2.5 2.1 2.1 4.3v5.7l-2.1 3.9-2.5 2.1-2.5 1.1h-6.1l-2.8-1.5-2.5-2.4-1.4-3.6v-5.3l1.8-3.6 2.5-2.5z"/><path class="z" d="m263 503.7h4.3l3.2 1.4 1.8 1.5 2.1 3.5 0.4 1.1v6.4l-2.2 3.5-2.1 1.8-2.8 1.1h-5.4l-2.8-1.5-3.2-3.9-1.1-2.5-0.3-1.7v-3.2l1.8-3.2 2.8-2.9z"/><path class="A" d="m224.3 443.7h6.8l2.8 1.8 2.5 2.5 1.1 2.1 0.3 2.5v3.5l-2.1 4.3-2.5 2.1-2.5 1.1h-4.6l-2.8-1.1-2.9-2.4-2.4-5-0.4-1.4v-2.9l1.8-3.5 2.8-2.5z"/><path class="B" d="m242.8 475h5.7l3.2 1.7 2.5 2.9 1.4 2.8v5l-1.4 3.2-2.5 2.8-1.8 1.1-1.4 0.3h-5l-3.2-1.4-3.2-3.2-1.4-2.5-0.3-1.4v-3.5l1.7-3.6 2.9-2.8z"/><path class="C" d="m348.6 56.8h0.7l-0.7 1.4-3.6 3.6-2.8 2.5-3.5 3.1-2.9 2.5-6 5-5.7 4.6-4.3 3.2-6.4 4.6-4.9 3.6-8.2 5.7-5.7 3.5-21.6 14.2-6.4 4.3-6 4.2-6.4 4.6-4.6 3.6-6.4 5-5.7 4.6-4.6 3.9-3.9 3.2-5 4.6-2.8 2.5-4.7 4.2-4.2 3.9-7.1 7.1-2.5 2.9-5.7 6-4.2 5-5 6-0.7 1.1h-0.7l1-3.2 1.1-1.8h0.7l0.7-1.8 3.2-3.5 1.4-1.8h0.7l0.7-1.4 2.2-2.5h0.7l0.7-1.4 2.1-2.5 4.3-4.3 0.3-0.7h0.8l0.7-1.4 1.7-1.8h0.7v-0.7l2.9-2.5 6.4-6.3 3.9-3.2 4.2-3.9 3.9-3.2h0.8l0.3-1.1 5-3.9h0.7l0.3-1.1 1.5-0.3v-0.7h1l0.4-1.1h0.7v-0.7l1.4-0.4v-0.7l2.1-1.4 2.2-1.8h0.7v-0.7l1.4-0.3v-0.8l3.9-2.4 0.4-0.7 2.5-1.5 1.4-0.7v-0.7l3.2-2.1h1v-0.7l3.2-1.8 3.9-2.1 5-3.2 2.1-1.8 0.7-0.4 0.4-1 1.8-1.1h0.7v-0.7l3.2-2.1 2.8-1.4 3.2-2.2 3.9-2.5 4.3-2.1 0.7-0.7h0.7l1.8-1.4h1l0.4-1.4 1.1-0.4 0.3-1.1 3.2-2.1 3.6-2.8 2.4-1.4 4.7-3.6 6.3-4.6 1.5-0.4 0.3-1h0.7v-0.7l3.2-2.2h0.7v-1l1.5-1.1h0.7v-0.7l3.9-3.2 1-0.4v-0.7l2.9-2.5 3.2-2.8h1l0.4-1.1z"/><path class="A" d="m284 532.5h5l2.8 1 2.5 2.2 2.5 3.9 0.3 1.4v3.9l-2.1 3.5-2.5 2.2-2.8 1h-4.3l-3.2-1.4-3.2-2.8-1.4-2.9-0.4-1.4v-3.9l1.8-3.5 2.5-2.2z"/><path class="q" d="m552.7 314.5l6 0.4 4.3 0.7 4.6 1.4 1.4 0.4 1.8 0.7h3.2l2.8 2.8 1.5 3.2 0.7 3.2 0.3 4.3v6h-2.8l-0.4-0.4 0.4-3.2 0.7-4.6-0.7-0.7-0.7 1.1-2.2-0.4-3.5-1-7.1-3.6-3.9-2.8-3.6-3.2v-0.7l-3.2-0.4-2.8 0.7-2.1 1.4-1.4 2.2-0.8 3.2 0.4 4.2 2.1 3.6 2.5 2.5-0.3 0.7-2.2-0.7-2.8-2.5-2.1-3.2-0.7-1.8-0.4-4.3 0.7-2.1 1.8-3.5 2.8-2.2 3.2-1z"/><path class="B" d="m308.8 558.7h4.6l3.2 1.5 2.5 2.1 1.8 3.2 0.4 1v4.3l-1.5 3.6-3.5 3.2-1.1 0.3h-4.9l-2.9-1.1-1.8-1v-0.7l-1.4-0.7-2.5-3.9-0.3-1.1v-3.6l1.8-3.2 2.4-2.4z"/><path class="D" d="m497.7 208.7h3.2l1.4 1.8-0.4 2.5-2.8 1.8-7.1 2.4-14.2 4.7-12.8 4.2-2.8 0.7h-2.1l-1.5-1-0.3-2.2 1.8-1.7 4.6-2.2 7.4-2.8 14.2-4.6 3.9-1.4 2.2-0.8z"/><path class="E" d="m473.5 171.1l2.2 0.4 1.7 1.7-0.3 1.8h-0.7l-0.7 1.4-4.6 3.6-6.4 4.6-5.7 4.2-6.4 4.7-3.5 2.4-3.2 1.8-2.2-0.7-1-1.8 0.3-2.1 3.2-2.8 4.6-3.6 12.8-9.2 5.3-3.9 3.6-2.1z"/><path class="F" d="m249.6 173.2h2.1l5.3 3.6 3.6 2.1 1.4 0.7v0.7l1.8 0.7 4.2 2.9 3.2 1.8 4.3 2.8 5.6 4.3 1.1 1.4v2.5h-0.7v0.7l-0.7 0.3h-2.5l-4.3-2.1-15.2-10.3-6.4-4.3v-0.7h-1.1v-0.7l-1.4-0.3-2.1-2.5v-1.8z"/><path class="E" d="m441.2 141.3l1.5 0.3 1 1.5v2.8l-0.3 1.1h-0.7l-0.7 2.1-4.3 6.7-4.3 6.4-3.2 4.6-4.6 6.8-1.4 1.4-2.1-0.3-2.2-1.5 0.4-2.5 2.8-4.6 7.5-11 0.7-1h0.7v-1.1h0.7v-1.1h0.7v-1h0.7v-1.1h0.8l0.3-1.4 1.4-2.1h0.7v-1.1h0.7v-1.1h0.8l0.3-1.4h1.1v-0.7z"/><path class="G" d="m348.6 625.1h2.8l2.2 1.1 4.6 0.7 2.8 0.7v0.7h2.9l2.8-1 2.1-1.5 1.8-0.7 2.5 3.6v2.8l-1.8 2.1-5 3.2-3.5 1.5-1.1-1.1-13.5-6.8-1.4-1-4.6-2.1-3.2-1.5v-0.3l2.8 0.3 1.8 0.4 3.6-0.7z"/><path class="H" d="m282.9 140.6l1.8 0.3 1.4 1.1v1.1h0.7l1.4 2.4 3.9 5.4 2.2 3.2v0.7h0.7l2.1 3.5v0.7h0.7v1.1h0.7v1.1h0.7v1h0.8v1.1h0.7v1.1h0.7v1h0.7v1.1h0.7v1.1h0.7l1.4 2.8v3.9l-1 1.8-2.2-0.4-1.7-2.1-1.8-2.5-1.4-2.8-2.5-3.2-1.4-2.9-4.3-6.4-3.9-6-2.8-5-0.8-1.7 0.4-1.5z"/><path class="I" d="m467.9 98l1.7 0.7 6.8 4.6 5.7 4.3 6.7 4.6 8.9 7.1 5.7 4.6 4.6 3.9 2.8 2.5 5 4.2 5.3 5 3.9 3.9 2.9 2.5 5.3 5.3 2.5 2.9 5.6 5.6 2.5 2.9 3.9 4.2 3.2 3.9 3.6 4.3 3.9 5 5 6.4 4.6 6.7 5.6 8.5 4.7 7.5 4.9 8.5 3.2 5.7-0.3 1.4-2.5-4.3v-0.7h-0.7l-1.1-2.1-0.3-1.1h-0.8l-1.4-2.8-2.5-3.9-4.2-6.8-2.9-4.6-0.7-1.7-1.4-1.8v-1.1h-0.7l-0.4-1.8h-0.7v-1h-1l-1.4-1.8-2.5-3.5-2.5-3.2-1.8-1.8v-0.7h-0.7l-2.5-3.6-1.8-2.1-1-1.8-2.5-2.5-3.2-3.9-1.4-1.4v-0.7h-0.7l-2.5-2.8-4.6-4.7-2.5-2.8-4.3-4.3-1.4-1.7-1.8-1.8-3.5-3.2-2.2-1.8-1.7-1.7-0.4-1.1-1.4-0.7-2.8-2.9-2.5-2.8-1.4-1.1v-0.7l-1.5-0.7-2.5-1.4-3.5-2.8-3.9-3.2-2.5-1.8v-0.7l-1.4-0.7-2.1-2.5-6.1-4.6-4.2-2.9-3.6-2.1-4.6-3.2-1.1-0.4v-0.7l-1.4-0.7-1.1-1-1.4-0.8-1-1z"/><path class="F" d="m402.9 125l2.8 1 0.8 1.4-0.4 3.6-5 15.6-0.7 3.2-1.4 3.6-1.8 5.3-1.4 1-1.4 0.4-1.8-1.1-0.3-0.7v-2.8l1.7-6.8 1.1-3.5 1.1-2.5 1-4.3 1.1-3.2h0.7l0.7-3.5 1.8-3.9 1-2.5z"/><path class="J" d="m338.3 625.1l1.4 0.4 1.4 1 3.2 1.5 3.6 1.7 3.5 2.2 5.7 2.5 3.2 1.7 2.5 1.4-0.4 1.1-4.6 1.8-1.8 0.3h-3.1l-3.6-1-5.7-2.2v-0.7l-2.1-0.7-3.6-2.1-1.7-1.8-0.4-0.7v-2.1z"/><path class="G" d="m322 125l2.1 0.7 1.1 2.8 2.8 8.5 1.4 5.3 1.1 2.9 1.1 4.6 1 3.2 0.7 3.2v1.8l-0.7 1-3.5-0.3-1.1-1.1-1.4-3.9-1.4-5.7-5.4-18.8v-3.5z"/><path class="w" d="m561.9 560.2h0.7l-0.7 1.4-2.8 3.9-4.6 5.7-3.6 4.6-3.2 3.5-2.1 2.9h-0.7l-0.7 1.4-3.9 4.2-3.2 4-8.2 8.1-0.3 0.7h-0.7l-0.8 1.4-1.7 1.8h-0.7v0.7l-2.9 2.5-5.3 5-2.8 2.5-1.1 0.3-0.7 1.4-1.4 1.5h-0.7l-0.4 1h-0.7v0.7l-1.4 1.1h-0.7v0.7l-3.6 2.9-5.7 4.6-9.9 7.8-8.5 6.4-3.9 2.8-6.4 4.6-4.3 2.9-3.9 2.8-5 3.2-5.3 3.5-1.8 1.1h-0.7v0.7l-11 7.1-3.9 2.5-10.6 7.1-10 6.4-3.2 2.1-5.6 3.9-3.9 2.9-5.7 3.5-6.4 4.6-7.1 5-4.6 3.6-1.8 1.4-0.7-0.4 2.8-2.5 5.7-4.2 6.4-4.6 4.6-3.2h0.7v-0.7l3.9-2.5 4.3-2.9 6-4.2 6.1-3.9 8.1-5.4 3.9-2.4 8.5-5.7 5.7-3.6 22.4-14.9 4.6-3.2 1.8-0.7v-0.7l3.9-2.5 3.9-2.8 7.1-5.3 4.6-3.6 7.8-6.4 4.6-3.5 2.5-2.2h0.7v-0.7l3.9-3.2 1.1-1h0.7l0.4-1.1 2.8-2.5 5-4.6 2.8-2.5 3.6-3.2 7.4-7.4 0.4-0.7h0.7l0.7-1.5 4.2-4.2 2.5-3.2h0.7l0.7-1.4 4-4.3 3.1-3.9 3.9-4.6 4-5 1-1.8 1.8-1.7z"/><path class="K" d="m214.4 464.7l1.4 1.4 2.2 3.9 1.4 1.4 2.1 3.6 2.8 5.6 2.5 4.7 2.9 4.9 1.7 2.9 2.2 3.9 0.3 2.8 1.1 0.4v0.7l0.7 0.7h0.7l5 7.8 3.9 6 5.7 7.5 2.5 3.2 2.1 2.8 5 6.8 0.3 1.4 1.1 0.3v0.8h0.7l3.2 4.2v0.7l1 0.4 2.9 3.9 0.3 1h0.8l3.1 3.9v0.8h0.8l3.1 3.9 0.8 1.4 1.4 0.7 1.8 1.4 2.4 2.9 3.6 3.9 1.1 1.7-0.4 0.7-7.8-7.8-2.5-2.8-4.3-4.6-2.4-2.9-3.9-4.6-3.9-4.9-4.3-5.4-3.6-4.6-4.9-6.4-5.7-7.4-5-7.1-3.2-5.4-3.5-5.6-3.2-5.4-2.5-4.2-6.4-11.7-3.9-7.1-2.8-5.7z"/><path class="l" d="m487 203.8l5.4 0.3h3.2l1 0.7-0.3 1.4-2.9 1.8-1 1.1-2.9 1.4-1-0.4-0.8 1.1-6.3 1.1-8.2 1.8-4.3 0.7-0.7-0.4 1.4-2.5 1.1-0.7 1.8-1.4 1-0.7 0.8-1.1 2.4-0.7 1.8-1.8 2.1-0.7 2.2-0.3 0.3-0.4 2.5 0.4v0.7z"/><path class="o" d="m213.7 413.2l2.5 0.4 0.3 1 1.5 0.7 1.4 0.4 1.8 2.8 0.3 2.9-0.7 2.1-0.7 0.3v1.1h-0.7l-0.4 1.1-2.8 0.7-2.1 0.3-0.8 0.8-0.3-0.4-0.7 0.7-2.5-1.1-3.6-1.7-0.3-4.3 0.3-0.7h0.8v0.7l0.7-0.3 0.3-1.5h0.7v-1l1.8 0.3v0.7l1.8-0.3v-2.9l-1.8 0.4-0.4-1.1 1.5-1.4z"/><path class="L" d="m343.3 233.9l1 0.4-3.5 1.4-6.1 2.5-0.7 0.7h-1.4l-0.3 0.7-1.1 0.7h-1.1v0.7l-2.8 1.8-1.4 0.7-1.8 0.4-0.4 1-3.5 2.5-1.4 1.8-0.4-0.4-1 1.1-1.1 1.4-0.7 0.4-0.7 1.4-1.8 1.4-2.5 2.9-2.1 2.4-2.5 2.9-2.5 3.2-2.1 4.2-1.4 3.2-1.5 2.2-1 1-3.6 4.6-2.8 2.9-1.8 2.1-0.7 1.8 0.4 2.8 1 2.5 0.7 0.7-1 0.4-1.5-1.8-0.7-2.8v-2.5l2.5-4.3 3.2-5.3 2.5-5 3.5-5.3 4.7-6.4 4.2-4.6 5-5 5-3.9 6.4-4.6 8.8-5 8.9-3.5z"/><path class="M" d="m348.6 56.8h0.7l-0.7 1.4-3.6 3.6-2.8 2.5-3.5 3.1-2.9 2.5-6 5-5.7 4.6-4.3 3.2-6.4 4.6-4.9 3.6-8.2 5.7-5.7 3.5-21.6 14.2-6.1 3.9v-1.1l1.8-1.4 4.3-2.5 3.5-2.8 0.7-0.4 0.4-1 1.8-1.1h0.7v-0.7l3.2-2.1 2.8-1.4 3.2-2.2 3.9-2.5 4.3-2.1 0.7-0.7h0.7l1.8-1.4h1l0.4-1.4 1.1-0.4 0.3-1.1 3.2-2.1 3.6-2.8 2.4-1.4 4.7-3.6 6.3-4.6 1.5-0.4 0.3-1h0.7v-0.7l3.2-2.2h0.7v-1l1.5-1.1h0.7v-0.7l3.9-3.2 1-0.4v-0.7l2.9-2.5 3.2-2.8h1l0.4-1.1z"/><path class="N" d="m518.3 408.2l4.2 0.4-0.3 0.7-5.7 1.4-4.3 1.4-4.2 1.8-5.3 2.8-6.1 4.3-5.7 4.6-3.5 2.9-7.8 6.4-6.4 4.9-6.8 4.6-4.2 3.2-4.6 3.2-6.8 5-1 0.3 0.3-1.4 1.4-1.7 3.6-2.5 2.5-2.2 1.4-0.3v-0.7l3.9-2.5 2.5-1.8h0.7v-0.7l4.2-2.8 1.8-1.5h0.7v-0.7l1.5-0.3 0.3-1.1 3.9-2.8 1.1-0.4v-0.7l2.8-2.1h0.7v-0.7l3.2-2.5 5-3.9h0.7v-0.7l1.4-1.1h0.7l0.4-1.1 1.8-1h0.7v-0.7l4.2-2.9 4.3-2.5 5.7-2.1 3.5-1.4z"/><path class="o" d="m245.6 476.7h2.5l1.5 0.7v1.8l-1.5 1.8-0.7 2.1v2.9l1.1-1.5 1.4-2.1 1.1-1.4 0.7 0.4v1l0.7 0.4h-0.7v0.7h-0.7l-0.4 1.4-1 2.8-0.4 2.5-2.5 2.9h-1.1v-1.1h-3.1l-1.5-1.4-1.4-1.8-1.8-1.8v-3.5l0.7-1.8 2.9-1.1 1.8-2.4z"/><path class="o" d="m229 445.5h1.4v0.7l2.1 0.7v1.1h0.7l1.8 3.2-0.7 3.2-0.7 0.3-1.4 0.4-0.4-0.4h-1.1v0.7l0.7 0.4-0.7 1.1-4.2 2.1-1.4 0.3-2.2-1.4-2.5-2.1v-3.2l0.4-1.1h0.7v-0.7l1.1-0.7 1-2.1 2.2-1.8 1.4 1.8h1.1l-0.4-2.1z"/><path class="O" d="m286.8 535l2.5 0.3 2.1 1.1 0.4 1.4 1.1 0.4v0.7h0.7l0.3 3.2-0.7 1.4-2.1 1.4-0.7 1.1-2.5 0.3-3.6 2.1-2.1-1.7-1.8-2.9-1-2.8v-2.1h0.7l-0.4-1.1 0.7-1.1 1.8-0.3-0.3 2.5 1 0.3v-3.2h0.7l0.4-0.7 1.4 1.4 0.4 0.7 1.4 0.4-0.7-2.5z"/><path class="o" d="m308.8 558.7h4.6l2.2 0.7-1.4 0.8 0.3 1 1.8 0.4v0.7l1.1 0.3 1 2.2 0.4 3.2 0.7 1.4-0.4 0.7-1.4-0.4-1.8 0.8-0.3 1.4-4.3 2.1-2.5-0.4-0.3-1h-1.4l0.3-3.6 1.4-1.4-0.3-2.1-0.7-1.8-1.1-0.3 0.7-0.4v-0.7l3.6-1.4 0.3-1.5-2.5-0.3z"/><path class="P" d="m355 581.8l1 0.4 1.8 3.5 0.7 2.1v5.7l-0.7 3.6-2.5-0.4-7.8-0.3 1.1-6.8 0.7-2.8 1.8-1.8 2.8-2.5z"/><path class="L" d="m535.7 302.4l8.8 1.8 8.2 1.8 5 1.8 1.7 1.4v1.1l-1.7 0.7-7.5 1-5 2.5-1 1.4-2.1 1.1-1.8 2.8-1.1 4.3h0.7v1.1l-0.7 0.3 0.4 3.9 2.5 4.6 1.7 1.8 1.8 1.4 5 2.2 3.9 1.4 2.1 0.3-0.3 0.7h-2.5l-2.9-0.7v-0.7h-2.5l-1.4-0.7v-0.7l-2.1-0.7-2.5-1.8-2.8-2.8-1.8-3.2-0.4-1.4v-3.6l-0.3-0.3 0.3-3.6 1.1-2.8 1.8-1.8 3.2-3.6 2.1-1.4h0.7l0.4-0.7 6-1.8 1.4-0.7-1.8-1-7.4-1.8-1.4-0.7h-1.1v-0.7l-1.8 0.3v-0.7l-1.4 0.4-0.7-0.7-3.2-0.7z"/><path class="Q" d="m144.1 282.9l0.7 0.4-1.7 2.1-1.8 0.7v0.7l-1.1 1.1-0.7 2.5 0.7 3.2 2.5 5.6 1.8 3.2 3.9 6.4 2.8 3.9 1.1 1.5v0.7h0.7l1.1 1.7 3.2 3.9 0.7 1.8 1 0.4v0.7l1.1 0.3v0.8h0.7v0.7l1.4 0.3 3.6 3.2 2.1 1.4v0.7l1.8 0.8v0.7l1.4 0.3 3.6 2.5 5.3 3.2 3.9 2.5 4.9 2.5 0.8 0.7 1.7 0.7 3.6 1.8-1.4 0.3-5.7-2.5-6-3.2-4-2.1-3.9-2.5-6-4.2-3.9-3.2-5.3-5-3.2-3.2-3.2-3.9-2.5-3.2-4.3-6.4-4.2-7.4-1.4-2.9-1.8-5.3-0.4-3.6 3.9-3.5z"/><path class="N" d="m379.5 309.2h1.7l0.4 1.8v0.7l4.3 3.2 6.7 3.5 5.7 1.8 3.2 0.7h9.2l10.3-3.2 3.9-2.1 4.3-2.9h2.1l-0.7 1.5-2.8 2.1-2.9 1.8-5 2.1-3.9 1.4-6.7 1.4h-7.1l-7.1-1.4-5.7-2.1-5.3-3.2-3.6-2.9-2.8-2.4z"/><path class="R" d="m279 503.7l1.1 0.7 2.8 2.5 9.2 12.8 2.5 3.5 6.4 7.9 1.8 2.8 1.4 1.8 1.8 1.4 1.4 1.8 1.4 1 1.8 1.8 1.8 2.1 2.8 2.5 7.8 7.8 2.9 3.6 0.3 1-1.4-0.3-1.8-1.8-5.6-5.3-4.7-4.6-2.4-2.9-5.7-6-3.9-4.3-2.9-3.5-4.6-5.7-9.9-13.5-4.3-6z"/><path class="S" d="m411.8 293.2h6l3.2 0.7 3.2 2.2-0.4 0.7-3.9-1.5-3.5-0.7h-3.2l-8.9 2.2-2.8 1.4h-0.7v0.7l6-1.4 5-1.1h6.4l4.2 1.4 4.6 2.5 1.5 1.8-0.4 0.7-1.1-0.7-2.4-0.7-3.6-1.8-2.1-0.7-2.9-0.4h-6.4l-5.6 1.5-8.6 2.8-1.7 0.4h-2.5l1.4-1.5 5-3.2 5.7-3.2 4.2-1.4z"/><path class="k" d="m281.1 239.3l2.2 0.7 13.5 6.7 5.6 2.5-2.1 2.5-4.6 4.6-1.4 1.8h-0.7l0.7-4.6v-2.5l-1.8-1.8-2.1-4.3-1.8-0.7-5.7-3.5-1.8-1.1z"/><path class="T" d="m566.2 231.4l1.1 0.4 1 2.5 0.7 1.1v1h0.7l0.4 2.1h0.7l1.4 3.2 0.4 1.5h0.7l3.2 6.7 2.1 6 2.5 6.4-0.4 0.7-1.7-3.2-1.8-4.6-2.1-4.9-2.5-5.4-4.3-8.1-1.8-3.6z"/><path class="B" d="m369.2 626.5l0.7 1.1v1.8l-2.9 1-0.7-0.3-1.4 2.8h-0.7v1.1h0.7l-0.3 3.5-1.5-0.3-0.7-2.1 0.4-1.1-1.4-0.7-0.4-1.1h0.7l0.4-1.4 0.3-0.7 5.7-2.8z"/><path class="U" d="m544.5 197.4l1.8 1.7 2.9 3.9 1.7 2.5v0.7l1.4 0.8 2.5 3.5 2.9 5 1.7 3.5 3.2 5.3 1.5 2.5-0.4 1.5-5.3-9.3-5-7.8-4.2-6.4-3.6-4.9-1.1-1.5z"/><path class="V" d="m204.5 434.9l1 1 3.9 10 2.5 5.3 3.9 8.5 0.4 1.4-1.1-1-1-1.8v-1.1l-1.1-0.3-3.2-6.8-1.4-3.5-0.4-1.8-1-0.4-1.5-4.2-0.7-0.7z"/><path class="I" d="m455.1 655.3h0.7v0.7l-11.4 7.5-12 7.8v-1.1l2.5-1.8h0.7v-1.4l1.7-0.3v-0.8l1.8-1h0.7v-0.7l2.5-1.5h0.7v-0.7l2.1-1h1.1v-0.7l2.5-0.4v-0.7l2.8-1.4z"/><path class="W" d="m323 557l2.2 1.4 3.2 3.2 4.9 3.9 4.6 3.5 3.2 2.2-0.3 0.7-2.1-0.7-0.8-0.4v-0.7l-1.7-0.4v-0.7l-1.8-0.7-0.7-1.4h-1.4l-1.5-1.4-2.8-1.8v-0.7h-0.7v-0.7l-1.1-0.4v-0.7l-1.4-0.7v-0.7h-0.7l-1.1-1.4z"/><path class="X" d="m240.7 438.8l1 1.4 2.5 2.8 3.2 5.7 1.1 2.5 1.8 3.5 1 3.2 1.1 1.8 0.7 1.1v1h-0.7l-9.2-17-2.5-5z"/><path class="Y" d="m270.1 89.5l1.1 0.3-2.5 1.8h-0.7v0.7l-2.1 1.4h-0.7l-0.4 1.1-1.4 0.7h-1.1v0.7l-5.3 3.2-2.8 2.5h-0.7v0.7l-3.2 2.1h-1.1v0.7l-2.8 1.8-0.8-0.4 1.5-1.7 6.7-4.6 5-3.6z"/><path class="Z" d="m453 442.7h1v0.7l-6.4 3.9-6.7 3.2-5.3 1.7h-1.8v-1l9.9-3.9 6.1-2.9z"/><path class="l" d="m497.7 250.3l4.2 0.7 1.8-0.4 0.7 0.4 7.8 0.3v0.4h-49v-0.4l13.5-0.3 20.3-0.4z"/><path class="a0" d="m423.5 469.3l0.3 0.7-3.1 5.3-2.5 4.3-2.2 3.9-3.9 8.1h-1l-0.4-1.7 3.9-6.8 2.1-3.5 1.8-3.6 0.7-0.7 1.1-1.8 1.1-1 0.3-1.4z"/><path class="a1" d="m199.5 349.3l2.8 0.4 10 2.4 3.9 0.8 5.7 0.3 11.3 0.4-1.4 0.7-6.7 0.3h-5l-7.1-1-8.2-2.2-5.3-1.7z"/><path class="a2" d="m249.6 173.2h2.1l5.3 3.6 2.5 1.8-0.7 0.7v-0.7l-1.4-0.4-2.2-1.1-2.5-1v-0.7h-0.7v-0.7h-2.1l0.7 2.4 2.1 1.8v0.7l1.5 0.4 0.7 0.7h-0.7v0.7l-1.8-0.4v-0.7h-1.1v-0.7l-1.4-0.3-2.1-2.5v-1.8z"/><path class="a3" d="m306.7 586.8l2.8 2.1 0.8 0.4v0.7l1.4 0.3v0.7l1.4 0.4 1.4 1.8 2.5 1.7 1.1 2.2 1.7 1.8-1.7-0.8-3.9-2.4-2.5-1.5v-0.7l-1.4-0.3-1.1-1.4-1.1-2.9-1.4-1.4z"/><path class="a4" d="m422.8 472.1l0.3 0.7-3.5 7.5-4.6 8.2-1.4 1.4-0.8 1.7-0.3-1.4 3.9-8.1 1.4-2.5 3.9-6.8z"/><path class="l" d="m243.9 366l1.4 0.7-0.4 2.8-0.7 1.1-6.4 3.2h-1.4v-0.7l1.8-1.4 1.4-2.5 3.6-2.9z"/><path class="a5" d="m348.6 27.7v1.1l-0.7 1h-0.7l-0.7 1.4-4.7 4.7-2.1 1.7-1 1.8-1.8 1.4-1.8 2.2-3.9 3.1-1.8 1.5-0.7-0.4 5-5.3 2.8-2.5 10-9.9z"/><path class="a6" d="m594.6 436.6h0.3v2.5l-2.8 11.4-2.5 7.8-1 1.8h-0.4v-2.5l2.1-6.4 2.9-10.7 0.7-2.5z"/><path class="a7" d="m502.7 374.9l0.3 0.7 1.4 0.7 5 2.8 5.3 2.1 0.4 1.1 1 0.7-3.5-0.3-5.3-2.2-3.6-2.1-1.4-1.4v-1.8z"/><path class="w" d="m621.2 321.6h0.4l1.7 13.9 0.8 8.5 0.3 2.8 0.4 6.8v9.5h-0.4l-0.7-15.2-1.1-3.2-0.3-5 0.3-0.7v-3.2l-1-4.2v-4.3l-1.1-1.8 0.4-2.1z"/><path class="a4" d="m518.3 400.8h3.5v0.3l-4.2 1.1-3.6 0.7-0.7 0.7-2.5 0.7-3.2 1.1-2.5 0.7-0.7 0.7-3.2 1.4-2.1 1.1-2.1 0.7 1-1.8 8.2-3.9 6-2.1z"/><path class="l" d="m262 353.9l2.5 0.4 0.7 2.1-0.7 1.1-0.7-1.8-3.2 0.3-3.9 1.8-11.8 4.6-3.5 2.9-1.4 1 0.7-1.7 3.5-2.9 5.7-2.5 6-2.4 5-2.5z"/><path class="a8" d="m563.7 308.5h2.1l2.2 1.4 2.8 2.5 0.4 1h-3.9l-6.4-0.7 1-0.7 1.5-0.7 0.3-1z"/><path class="Z" d="m341.1 232.2l1.1 0.3-5.7 2.1-5.3 2.5-6.7 3.6-4.3 2.8-1.4 0.4 1-1.8 2.5-2.1 3.9-2.2 3.6-1.7 3.5-1.5 4.6-1.4z"/><path class="a9" d="m392.6 232.5l2.5 0.7h1.1v0.7l3.5 0.7 4.3 1.8 7.1 4.3 0.3 0.7 2.2 0.7v1.1l0.7 0.3-1.8-0.3-5.3-3.2-5.7-2.9-6.4-2.8-2.5-1.1z"/><path class="aa" d="m300 167.9h1l1.1 1.1 0.7 1.7 0.7 1.5h1.1l0.3 2.1-1 1.8-2.2-0.4-1.7-2.1-1.1-1.4 0.3-1.1 0.8-0.4z"/><path class="ab" d="m351.1 585.7l0.7 0.4-1.1 1.4-1 5.7-0.8-0.7-1.7 2.4-0.7 2.2-2.9 2.5h-0.7l0.7-1.8 1.1-1.4 2.5-6.1 1.4-2.5 1.1-0.3z"/><path class="ac" d="m235.4 407.9l1 1.4 3.2 7.1 2.1 5 2.9 5.6 0.7 2.2-1.1-1.1-2.1-3.9v-0.7h-1.1l-5.6-12.4-0.4-2.9z"/><path class="ad" d="m319.8 126.4l0.7 1.4 1.1 4.6 1.1 2.5v1.4l1 0.4 1.1 3.5 0.4 1.4v2.9l0.7 0.3 0.3 2.5 0.4 1.8 0.7 3.2-0.4 1.1-1-2.9-5.7-19.9-0.4-1.4z"/><path class="ae" d="m280.8 330.5l2.1 0.3-0.7 1.8-4.3 5-1.4 1.8-1-0.4 0.7-1.4 0.7-2.5h-1.4l0.3-1.1 4.3-2.8z"/><path class="af" d="m219.7 391.2l0.7 0.7 2.2 5.3 1.7 4.6 2.5 5.4 2.9 6.7 2.1 5.7 0.7 2.5h-0.7l-4.6-10.7-1.8-4.6-1.8-4.3-3.9-9.5z"/><path class="ag" d="m541 376.3l2.5 0.3v0.4l-3.9 0.7v1.1l-4.3 0.3h-7.1l-3.5-1-4.3-0.8-0.7-0.7 6 0.7h8.5l2.2-0.3 3.9-0.4z"/><path class="S" d="m130.6 284.3l0.4 1.1-1.1 2.5 0.4 4.2 2.8 9.3 0.4 2.1-1.1-0.3-1.8-4-1.7-5.3-0.4-2.5v-4.2l0.7-1.8z"/><path class="ah" d="m368.8 49l1.4 0.7 1.8 1.8 0.7 2.1 4.6 4.6 1.1 0.4 0.7 0.7v1l1.1 0.4v0.7l2.1 1.1v0.7l1.1-0.4 2.8 2.9 2.5 2.8 2.5 2.1-0.4 0.8-3.5-3.2-2.9-2.5-4.9-4.3-11.4-11.3v-0.8z"/><path class="ai" d="m205.5 574l1.5 0.7 4.2 4.6 10.7 10.7h-1.1l-3.6-2.9-2.8-2.4-5-5v-0.7h-0.7l-2.1-2.5v-0.7h-0.7z"/><path class="aj" d="m236.4 517.6l1.8 1 1.4 2.5 1.8 1.8 0.3 1.4h0.8l2.4 3.6 3.2 4.6 0.4 1h-1.4l-3.2-4.2-4.3-6.1-3.2-4.6z"/><path class="ak" d="m331.9 228.3v1l-2.1 1.1-7.8 4.2-5.4 3.2-3.5 2.5-2.1 0.7v0.7l-1.1 0.4 0.7-1.4 6.4-4.6 5.3-3.2 6.8-3.6z"/><path class="J" d="m210.1 411.8h2.2l-1.1 0.7-3.2 1.8-1.4 1.7-1.4 4.7v2.4l0.3 2.5-1.4 0.7-0.7-2.1v-5.3l1.8-3.6 2.5-2.5z"/><path class="al" d="m262.7 478.9l1.1 1.4 4.2 7.1 4.3 6.7 4.9 7.5h-1v-0.7h-0.7l-3.2-5.3-0.4-1.1-1-0.4-0.4-1.4-1.4-0.3-1.1-2.2-1.4-1.7v-1.1h-0.7l-1.8-4.3-0.7-1.7-0.7-1.1z"/><path class="am" d="m285.8 233.6l1.7 0.3 5.7 2.9 7.8 4.2 5.7 3.2v0.7l-2.1-0.3-2.9-1.4-7.8-4.3-3.2-2.1-3.5-2.2z"/><path class="an" d="m484.9 137l1.4 0.7 4.6 3.6 2.2 1.8 1.4 0.3 2.8 2.1 2.5 2.2v0.7h0.7l0.4 1.4 2.5 2.5 2.8 2.5 1.4 1.4-0.3 0.7-2.9-2.8-2.8-2.5-4.6-4.3-12.1-9.9z"/><path class="ao" d="m160.5 552.3l1.7 1.8 2.9 3.9 1.4 2.2 0.7 0.3v0.7l1.4 0.7 3.2 3.6 1.8 2.5 1.1 2.5 0.3 1h0.7l-0.3 1.1-2.9-3.2-4.2-5.7-4.3-5.3-3.5-5z"/><path class="ap" d="m186.4 417.8l0.7 0.4v0.7h0.7l1.8 4.9 1.4 3.6 3.5 10.3v1.8l-0.7-1.1-1.8-4.3-2.1-4.9-1.8-5-1-2.8-0.7-2.2z"/><path class="aq" d="m241 351.1h1.8v0.7l-8.2 1.4-2.8 0.4h-9.9l-5.7-0.4-5.3-1.1-0.4-0.7h3.2l3.2 0.7 6 0.8h5.4l0.7-0.4 7.4-0.7z"/><path class="ar" d="m167.6 254.5l1 0.4-8.5 3.9-5.3 2.8-2.5 0.7-0.4 1.5-2.1 0.3-1.1 0.4v0.7l-3.2 1-1.7 0.4 1.4-1.8h0.7l4.6-2.8 4.3-1.8 7.1-3.2z"/><path class="as" d="m467.9 98l1.7 0.7 6.8 4.6 5.7 4.3 6.7 4.6 1.1 1-1.8-0.3-3.9-2.9-3.2-2.1-2.5-1.4-4.6-3.2-1.1-0.4v-0.7l-1.4-0.7-1.1-1-1.4-0.8-1-1z"/><path class="at" d="m620.2 325.5l1.7 1.8v4.6l1.1 3.9v3.2l-0.4 2.1v3.6h-0.7l-1.4-13.1-0.3-2.9z"/><path class="au" d="m213.7 131.7l0.7 0.4-2.5 2.8-6 6-3.9 3.2-3.6 3.2-0.7-0.3 3.9-3.9 2.5-2.9 4.3-3.9 2.8-2.5z"/><path class="av" d="m108.3 430.2h0.7l2.5 11 2.1 9.3-0.4 2.8h-0.3l-1.4-6.4-1.1-4.6-1.4-6.4-0.7-3.5z"/><path class="aw" d="m195.2 407.5h1.1l0.7 2.1v2.5l-0.3-0.7-2.9-0.3v2.1l0.7 3.2v2.1l-1-1-1.8-5.4 0.3-1.7z"/><path class="ax" d="m244.6 447.3l1 1.4 4.3 8.2 4.6 8.1 3.6 5.7 1.4 2.5-0.4 1.1-2.8-5-2.8-4.6-0.8-0.4v-0.7h-0.7l-0.3-1.4h-0.7l-2.5-5.3-0.7-2.5-3.2-5.7z"/><path class="ay" d="m423.1 294.3l3.6 1.4 2.8 1.4 4.3 3.9 2.8 2.9 2.5 2.1 0.4 1.4h-1.1l-5.3-5.3-3.6-3.2-4.9-3.2-1.5-0.7z"/><path class="am" d="m257.7 275.5l2.1 0.3 6.8 4.3 3.9 3.5-0.4 1.4-4.6-3.5-4.9-3.2-2.5-1.4-0.7-1.1z"/><path class="Y" d="m293.6 74.2h0.7l-0.4 1.4-1.8 0.4v0.7l-1.4 1h-0.7l-0.3 1.1-3.9 2.8-5 2.5-1.8 1.1-0.7-0.4 1.8-1.7 6.7-4.3z"/><path class="a4" d="m500.5 620.2l1.4 0.3-0.3 1.1-5 3.9-5 4.2-3.9 2.9v-1.1l3.9-3.2 0.8-1.4h1l0.7-1.8 1.1-0.3v-0.7l1.4-0.4v-0.7l1.8-1.1h0.7v-0.7l1.4-0.3z"/><path class="az" d="m214.4 464.7l1.4 1.4 2.2 3.9 1.4 1.4 2.1 3.6 4.3 8.5-0.7 0.3-2.5-4.2v-1.4h-0.7v-0.8l-1.1 0.4-2.1-4.3-3.6-6.7z"/><path class="aA" d="m196.3 147.7h0.7l-0.7 1.4-1.4 1.8-2.5 2.1-2.1 2.8-2.9 2.5-2.5 2.9-4.2 4.2h-0.7l0.7-1.4 4.2-4.6 2.5-2.5 2.5-2.8z"/><path class="a9" d="m313.4 59.6l0.8 0.4-0.4 0.7h-0.7l-0.4 1.1-2.8 2.1-1.8 1.8-7.4 4.9h-0.7v0.8l-2.5 1.4 0.7-1.8 6.4-4.6 6-4.6z"/><path class="w" d="m581.1 531.8l0.4 0.7-2.2 3.9-5.3 8.5-3.9 5.7-4.6 6.4-2.1 3.2h-0.8l0.8-1.8 3.1-4.3 4.3-6 3.9-6 4.3-7.1z"/><path class="aA" d="m230.4 117.9h0.7l-0.7 1.4-4.3 4.2-2.1 1.1-4.6 3.9-2.5 1.8h-0.7l0.7-1.4 4.6-3.9 7.8-6.4z"/><path class="aB" d="m227.2 411.8l1.1 1.4 5.3 11.7-0.7 1.4v-1h-0.7v-0.7h-0.8l-2.1-4.3-2.1-6z"/><path class="aC" d="m276.5 556.3l1.4 0.7 0.8 1.4 1.4 0.7 1.8 1.4 2.4 2.9 3.6 3.9 1.1 1.7-0.4 0.7-7.8-7.8-2.5-2.8-1.8-1.8z"/><path class="aD" d="m277.9 486.7l1.5 1.8 5.6 8.5 2.5 3.5-0.3 0.7-2.2-2.8-3.5-3.6-3.6-5.3z"/><path class="aE" d="m345.8 604.5h1l-0.7 1.8-2.8 5.3-2.2 5.4-0.7 0.3 0.4-3.9 0.7-1.4 0.7-2.5 1.4-2.8 1.4-1.8z"/><path class="aF" d="m221.2 477.4h0.7v0.8h0.7l1 2.8 1.8 2.5 1.4 1.8 2.9 4.9 0.7 3.9-1.4-1.7-2.2-3.9-4.6-8.2-1-2.1z"/><path class="w" d="m623.7 395.1h0.4v4.3l-1.1 14.2-1.8 11.7-0.7 3.5h-0.3v-3.2l1-5.3 1.4-11.7 0.4-11.4z"/><path class="aG" d="m322 125l2.1 0.7 0.4 1.4-0.8 2.5-0.3-0.7h-0.7v-0.8l-0.7 0.8 0.3 3.2 0.4 2.4-1.1-1.4-1.1-3.2-0.7-4.2z"/><path class="au" d="m307.4 637.5l0.4 1.5-3.2 10.3-1.1 2.4h-0.7v-2.8l3.5-10.3z"/><path class="aH" d="m432.7 246l1.8 0.7 3.9 3.2 3.2 2.5 3.5 2.5 3.2 2.5 2.5 2.4 0.7 0.4v-3.2h0.4v4.3l-1.4-0.7-5-3.9-6-5-5-3.9z"/><path class="aI" d="m542.1 580.4h0.7l-0.7 1.4-3.9 4.3-2.5 2.8-2.2 2.5h-0.7l0.7-1.4 1.8-2.9 1.1-1.7 2.1-2.5 1.4-1.1h0.7l0.4-0.7 0.7 0.4z"/><path class="aJ" d="m205.9 444.8l0.7 0.3 3.9 8.6 0.4 2.1 3.2 7.4h-0.8l-4.6-9.9-2.5-5-0.7-1.7z"/><path class="aK" d="m342.9 704.6l1.4 0.7 12.8 9.6 3.6 2.9 3.5 0.3-0.7 1.4-1.1 1.1-3.9-3.5-13.5-10.3-2.1-1.5z"/><path class="aL" d="m301.4 534.6l1.4 0.7 3.9 4.3 5 5.3 1.4 1.8h-1.1l-2.5-2.5-2.8-1.8v-1.1h-0.7v-0.7l-1.1-0.3v-0.7h-0.7l-0.7-1.8-1.1-0.4-0.3-1.4-0.7-0.3z"/><path class="aM" d="m439.1 143.1h1.1l-0.7 2.1-1.5 1.8-2.4 4.2h-0.7l-0.8 1.8-2.4 1.8 0.3-1.8h0.7v-1.1h0.7v-1h0.7v-1.1h0.8l0.3-1.4 1.4-2.1h0.7v-1.1h0.7v-1.1h0.8z"/><path class="aN" d="m225.1 478.2l1 0.3 5 9.2 2.8 4.7-0.3 0.7-2.9-3.2-2.1-3.9-2.8-4.6z"/><path class="aO" d="m224.7 593.2l1.4 0.7 2.9 2.8 3.9 3.2 5.3 4.6 3.9 3.2 0.4 0.7-1.8-0.7-4.3-3.5-1.8-1.4v-0.8l-1.7-0.3-0.4-1.1h-0.7l-1.1-1.4-1-0.3-0.4-0.8-1.8-1-0.3-1.1h-0.7l-1.1-1.8-0.7-0.3z"/><path class="aP" d="m278.3 330.1l1.4 0.7v1.1l-3.9 2.5-2.1 1.4h-1.8v0.7l-1.8 0.7-1-0.3 3.9-2.9 1.8-1.4 1.4-0.3v-0.7l1-0.4z"/><path class="aQ" d="m241.4 423.5h0.7l2.8 5.3 1.1 1.1 1.1 2.8 1.7 3.9 1.1 2.2-0.3 1-1.1-1.8-1.1-1.4-4.6-9.2-1.4-3.2z"/><path class="aK" d="m195.6 254.9h16l4.9 0.3 1.8 0.4v0.7l-7.1-0.4-15.6-0.3z"/><path class="aR" d="m127.8 414.3l1.1 0.3 2.1 14.2 1.1 1.8 1.4 0.3v0.8l-2.9 0.7-2.8-16.7z"/><path class="aS" d="m408.2 57.5l1.4 0.4 6.4 4.9 6.4 4.6 3.9 2.9-0.3 0.7-8.5-5.7-3.9-3.2-5-3.9z"/><path class="G" d="m314.9 559.8l1.7 0.4 2.5 2.1 1.1 3.5-0.4 3.6-1.4-1.4-0.3-3.2-1.1-2.2-0.7-0.3v-0.7h-2.1v-1.4z"/><path class="aT" d="m105.4 413.6l1.1 0.3 0.3 0.7 0.8 8.2 1 6-0.3 1.8-0.7-1.1-2.2-13.1z"/><path class="aU" d="m102.9 375.9h0.8l0.3 6.4v12.1h-0.3v-2.1h-0.8z"/><path class="aV" d="m248.1 348.2l1.1 0.7v0.8l-5.3 1.7h-2.9l-7.1 1.1h-3.2v-0.4l8.9-1.4z"/><path class="aW" d="m557.7 561.6l0.3 1-3.5 4.3-4.6 6-1.1 0.7 0.4-1.7h0.7l2.8-5.7 1.4-1.4h0.7l0.4-1.1h0.7l0.7-1.4z"/><path class="w" d="m603.1 486.3l0.4 1.1-4.3 10.3-2.8 6.4-3.2 5.7-1.1 1 1.1-3.2 2.8-4.9 3.9-8.9z"/><path class="a9" d="m528.2 177.5h0.7l0.4 0.7 1 0.4 1.5 1.7 1.7 1.5 1.8 2.4v1.1l1.4 0.7 1.5 2.1-1.1 0.4-3.2-3.6-3.2-3.9-2.5-2.8z"/><path class="aX" d="m177.5 574.4l1.8 1.7 3.9 4.3 2.5 2.8 3.9 3.6v0.7h0.7l1 2.1-0.3 0.7-3.6-3.5-2.5-2.9-3.9-4.2-3.2-3.9z"/><path class="aY" d="m258.1 256.3l1.7 0.7v0.7l1.8 0.7 5 3.6 0.7 1.4-0.4 0.7-5.6-3.9-3.6-2.8-0.3-0.7z"/><path class="a4" d="m172.5 173.6l0.7 0.3-2.1 3.6-1.4 1.4-1.8 2.9-0.7 0.7h-1.1l-0.7 1.4-2.1 2.5v-1.1l3.2-4.3 3.9-4.9z"/><path class="aZ" d="m361 229h7.5l7.4 1v0.4h-6.7l-6.1-0.4-4.2 0.7h-2.1l1-0.7 2.9-0.7z"/><path class="b0" d="m362.4 10.6l1.8 1.8 3.6 4.6 1.4 2.2-1.4-0.4-2.2-2.5-1-0.7v-0.7h-0.7l-1.1-1.1-1.8 0.4-0.7 0.4 0.4-1.5z"/><path class="b1" d="m263.8 465l1.4 1.4 2.5 3.9 1.4 2.9 2.1 3.2v0.7l-1.1 0.3-5.6-9.5-0.7-1.8z"/><path class="b2" d="m240 292.1h1.7l4.3 3.2 3.6 2.9 0.3 0.7-1.4 0.3-6-4.6-2.5-1.7z"/><path class="b3" d="m236.1 235.4h1v0.7l1.4 0.7 2.5 2.8 1.1 1.1 1.4 3.2-0.3 0.7-4.3-4.6-2.8-3.9z"/><path class="an" d="m590 232.2l1 0.3 4.7 9.6 2.1 5v0.7l-1.1-0.4-1.8-3.9-1.7-3.5 0.3-0.7h-0.7l-1.4-3.6z"/><path class="b4" d="m254.5 216.5l1.8 0.4 7.5 4.3 2.1 1-1.1 0.7-1.8-0.3-3.9-2.2-3.2-2.1-1.4-1.4z"/><path class="b5" d="m561.2 380.9h1.1l-0.7 1.8-4.3 4.6-1.4 0.7 1.8-2.1v-2.2l-0.7-1.7z"/><path class="a9" d="m270.1 89.5l1.1 0.3-2.5 1.8h-0.7v0.7l-2.1 1.4h-0.7l-0.4 1.1-1.4 0.7h-1.1v0.7l-4.2 2.5h-0.7l0.3-1.1z"/><path class="l" d="m504.8 246.7h1.8l1 0.7v1.4l-3.2 0.8v1h-0.7v-0.7l-1.8-0.3-0.7-1.5 0.7-0.7z"/><path class="b6" d="m360.3 639h1.8l-1.4 1.7-3.2 1.1h-3.2l-3.2-0.7-2.5-1.1 1.4-0.3 2.9 0.7h3.1l3.6-1.1z"/><path class="b7" d="m293.9 547h0.7v1.8l-2.1 1.8-1.4 0.7h-5.3l1.4-0.7 2.5-1.1 1.7-0.3v-0.8l2.2-1z"/><path class="b8" d="m389.4 534.6l0.7 0.4-0.7 1.7-3.5 4.6-1.5 1.1h-0.7l-1.7 1.4 0.7-1.4 2.1-2.8 1.8-1.8 0.7-1.1h0.7v-0.7z"/><path class="b9" d="m521.1 602.4h0.7l-0.7 1.4-2.8 2.9-2.9 2.4-2.5 2.2-0.7-0.4 2.5-2.5 0.4-0.7h0.7l0.7-1.7 3.5-3.2z"/><path class="ba" d="m179.3 407.9h0.7v0.7l-8.2 5.3-6.7 3.9-1.1-0.3 5.7-3.2 3.5-2.5 1.5-0.7v-0.7l2.4-1.5 0.7-0.7z"/><path class="bb" d="m444.8 83.1l1.8 0.3 7.1 4.6 7.4 5-0.3 0.7-7.8-5-5.4-3.5-1.7-0.7z"/><path class="bb" d="m503 373.1l2.8 0.3 3.6 1.8 2.5 0.7-0.7 0.7-2.9-0.3-3.9-1.4-1.7 0.3-0.8 0.7 0.4-1.8z"/><path class="bc" d="m282.2 533.2h1.8l-1.1 0.7-2.5 1.8-1.4 3.2-0.3 4.2-1.1 0.4-0.4-0.4v-3.9l1.8-3.5 2.5-2.2z"/><path class="bd" d="m233.6 445.9l1.4 0.7 1.8 2.1 0.7 1.4 0.3 2.5v3.5l-1 2.5h-1.4l1-3.2v-4.9l-2.1-3.6z"/><path class="be" d="m289 278.3h1l-0.3 1.8-3.2 6.7-1.1 0.7 0.4-3.5 2.4-5h0.8z"/><path class="w" d="m304.9 259.1v1.1l-2.8 3.6-3.2 4.6-2.8 4.2h-0.8l0.4-1.4 5.7-8.5z"/><path class="b3" d="m507.3 404l0.7 0.3-0.4 1.1-2.5 0.7-0.7 0.7-3.2 1.4-2.1 1.1-2.1 0.7 1-1.8 8.2-3.9z"/><path class="ao" d="m306.7 253.1h1.1l-0.7 1.8-3.2 3.2-2.5 3.2h-0.7l0.3-1.5 1.4-2.8 1.1-0.3v-0.8l1.4-1h0.7l0.4-1.1h0.7z"/><path class="b2" d="m227.5 394l1.1 0.4 3.6 8.5v1.4h-0.8l-0.3-2.1h-0.7l-2.1-4.3-1.1-3.5z"/><path class="aW" d="m249.6 442.3h1l4.6 8.5-0.3 1.4-0.4-1h-0.7l-0.7-1.4-1.1-1.5-2.4-4.9z"/><path class="bf" d="m379.1 60.3l1.1 0.4v0.7l2.1 1.1v0.7l1.1-0.4 2.8 2.9 2.5 2.8 2.5 2.1-0.4 0.8-3.5-3.2-2.9-2.5-4.9-4.3z"/><path class="bg" d="m423.5 469.3l0.3 0.7-3.1 5.3-2.5 4.3-0.7 1.4-0.8-0.4 0.4-2.1 1.8-2.8 0.7-1.4 1.8-1.8 0.3-1.4z"/><path class="b9" d="m549.9 337.2l2.1 0.4 4.6 1.4 1.4 0.7-0.3 0.7h-2.5l-5.7-1.7z"/><path class="a7" d="m425.3 483.8l0.3 1.1-3.2 6.7-1 0.8 0.3-3.2 2.5-5z"/><path class="bh" d="m209.8 449.4l1.4 0.4 5 10.6-0.4 0.7-1.7-2.8v-1.1l-1.1-0.3-3.2-6.8z"/><path class="bi" d="m289 293.6l2.1 0.7 1.8 2.5 1 3.2-0.3 1.4-1.5-1.8-3.1-5.3z"/><path class="bj" d="m481.7 636.1h0.7v0.7l-6.7 5-4.3 3.2-1.1-0.4 2.5-2.1h1.1v-0.7h0.7v-0.7l2.1-1.8 1.8-0.7 1.4-0.7v-0.7z"/><path class="bk" d="m319.1 563.4h0.7l1.5 3.1v4.3l-1.1 2.5-1.1-0.4 0.7-4.9-0.3-3.2z"/><path class="bl" d="m352.1 632.2l3.6 0.7h1.4l1.8 0.7 1.8 1.5 1.4 1.4 1.8 1-1.1 0.8-1.1-1.1-7.8-3.9-1.8-0.7z"/><path class="bm" d="m256.3 344.7h1.8v0.7l-5.4 2.8-2.4 1.1-1.5-0.4 1.5-1.4 4.2-1.7z"/><path class="bn" d="m281.1 637.5l1.5 0.4 10.6 7.1-0.3 0.7-2.9-1.8-1.8-1-2.8-1.8-0.7-0.7-1.8-0.7z"/><path class="O" d="m262 508h0.7v0.7h-0.7l1 2.8v2.9h-1.4v-1.5l-1.4-0.7-0.4-1 1.5-2.2v-0.7z"/><path class="bo" d="m543.1 315.9l1.1 0.4-1.8 2.1-1.8 3.9-0.3 3.2-0.4-1.4h-0.7l0.4-2.8 1.4-3.6z"/><path class="ai" d="m437 306.3l1.4 0.8 3.6 2.8v0.7l-5-0.3-0.4-0.8 0.7-0.3-0.3-2.5z"/><path class="bp" d="m433.4 247.1l1.5 0.7 5.6 4.6 5 3.9-0.4 0.7-3.9-2.8-2.1-1.5v-0.7l-1.4-0.7-3.2-2.8-1.1-0.7z"/><path class="bq" d="m303.9 561.9l0.7 0.4-0.7 1.1-0.7 3.5-0.4 2.8h-1.1l-0.3-0.3v-3.6l1.8-3.2z"/><path class="br" d="m280.4 327.3l0.4 0.7 1.8-0.4v0.8l1.7 0.3-0.3 1.1h-0.7v0.7h-2.2l-3.2-2.1 0.4-0.8 2.1 0.8z"/><path class="w" d="m131.7 310.3l1.4 0.3 1.1 1.1 0.7 2.8-0.4 0.7-1.4-0.3-1-1.1-0.4-1.1z"/><path class="bs" d="m333.3 566.2l1.8 0.7 6 4.3-0.3 0.7-2.1-0.7-0.8-0.4v-0.7l-1.7-0.4v-0.7l-1.8-0.7-1.1-1.8z"/><path class="b9" d="m183.9 548.1l1.8 1.8 3.5 4.2 2.1 2.9-0.7 0.3-1.8-1.4-1.4-1.8-0.7-0.3-1-2.5-1.1-1.1z"/><path class="aj" d="m576.8 359.2l0.4 1.5-1.1 3.5-2.5 2.8h-0.7v0.8h-0.7l3.6-7.1 0.3-1.1z"/><path class="v" d="m353.2 630.8l1.8 0.4 2.8 0.7v0.7l1.8 0.3 2.1 1.5 0.4 1.4h0.7l0.3 1.4-2.1-1.1-1.8-1.7-2.8-1.8-3.2-1.4z"/><path class="bt" d="m240 502.7h0.7l3.2 5.3 3.5 5.7-0.3 1-2.5-3.9-1.8-1.8-1.4-3.2-1.4-2.4z"/><path class="bu" d="m412.8 682.6l1.1 0.4-3.9 2.8-9.2 6.1v-1.1l10.6-7.1z"/><path class="bv" d="m573.6 339h2.5l1.8 1.4 0.4 1.4v2.5l-0.7-1.4-0.8-1.8-1.4-0.7h-6l0.3-0.7z"/><path class="bw" d="m253.1 478.9l1.4 1.4 1.1 2.1v5l-0.7 1.8-0.7-0.4 0.3-5-1-3.5z"/><path class="bx" d="m250.6 173.6l2.1 0.3 5.4 3.6 1.4 1.4-0.7 0.4v-0.7l-1.4-0.4-2.2-1.1-2.5-1v-0.7h-0.7v-0.7l-1.4-0.4z"/><path class="by" d="m346.1 574.7l1.8 0.7 3.2 1.8v0.7l-2.2 1.4h-0.7l-2.1-3.9z"/><path class="O" d="m290.4 546.3h2.8l-1.1 2.1-2.4 0.8h-2.5v-0.8l1.8-1h0.7v-0.7z"/><path class="C" d="m621.2 342.2h0.4l0.7 2.5v9.9h-0.4l-0.7-4.2-0.3-7.8z"/><path class="bz" d="m566.2 231.4l1.1 0.4 1 2.5 0.7 1.1v1h0.7l0.4 2.1h0.7l0.7 1.8v1.1l-1-0.4-3.2-6.7-1.1-1.4z"/><path class="bA" d="m261.6 623.7l1.4 0.4 4.3 3.2 4.3 2.8 2.4 1.8-1 0.3-3.6-2.5-4.6-3.2-3.2-2.1z"/><path class="bB" d="m417.1 507.3l0.4 1-1.5 4.3-0.3 1.8-1.4 0.3-0.7-0.3 0.7-3.2 1-1.1v1.1z"/><path class="bC" d="m306.3 563.7l2.2 1.1 0.7 1.4-0.4 1.8-1.7 1.4-0.4-1.4v-2.5l-0.7-0.4z"/><path class="bD" d="m196.3 147.7h0.7l-0.7 1.4-1.4 1.8-2.5 2.1-1.1 1.1-2.8 2.4-0.7 0.4 0.7-1.4z"/><path class="bE" d="m402.9 125l2.1 1 0.7 2.5-0.3 1.4-1.4-1.4-1.5 0.4-0.3-3.2z"/><path class="y" d="m210.5 454l1.1 1.4 3.2 7.1v1.8l-1.1-0.3-0.4-1.8-3.2-7.1z"/><path class="bF" d="m206.6 440.2l0.7 0.3 2.1 5.4 1.5 3.2-0.4 0.7-1.4-1.5-2.5-6.7-0.4-0.7z"/><path class="l" d="m131.3 310.3h0.4l0.7 4.2 2.1 0.7-0.3-3.5 0.7 0.7 0.7 2.5v1.7l-1.8 0.4-2.5-3.2z"/><path class="X" d="m359.6 603.1l2.5 0.4 1.4 1.4 1.1 1.8v1.7h-0.7l-2.2-2.8-2.1-1.8z"/><path class="bG" d="m148.7 488.8l1.1 1.1 4.6 9.6v0.7h-0.7l-2.8-5.4-2.2-4.9z"/><path class="bH" d="m203 277.2h4.7l6 1.1 1.4 0.7-0.3 0.7-11.8-2.1z"/><path class="bI" d="m557.7 217.2l1 0.4 1.8 3.2 2.1 3.5 1.5 2.5-0.4 1.5-5.3-9.3z"/><path class="bJ" d="m596.4 427.8l0.3 1-1.4 7.8-0.7 0.4-0.7 1 0.3-2.8 1.5-6.7z"/><path class="bK" d="m199.5 349.3l2.8 0.4 10 2.4-0.4 0.8-3.2-0.4-9.2-2.8z"/><path class="bL" d="m296.4 541h0.7v3.9l-2.1 3.5-1.1-0.7h0.7v-1.7l1.1-1.8z"/><path class="bM" d="m581.5 368.5l0.3 1-2.5 3.6-2.8 3.2h-0.7l0.3-1.4 1.8-2.2 1.4-1.4 0.7-1.4 1.5-0.7z"/><path class="an" d="m275.5 111.5l0.3 1-6.7 4.3-2.5 1.4 0.7-1.4 2.8-1.8 4.3-2.8z"/><path class="l" d="m223.3 209.4h0.7l0.3 2.5-0.7 3.2v2.5l-0.7 0.7-0.3-1.8v-5.3z"/><path class="bN" d="m339 625.5l2.8 0.3 3.2 1.5 2.5 1v0.7l0.7 0.4-2.4-0.4-3.6-1.7-3.2-1.5z"/><path class="as" d="m271.6 341.8l1 0.4-0.3 1.8-2.9 2.5h-0.7l0.4-2.2 1-0.3 0.4-1.1z"/><path class="bO" d="m262 180.3l1.8 0.7 4.2 2.9-0.7 0.3-0.4 0.7-2.1-1v-0.7l-1-0.4 0.3-0.7h-1.1l-1.4-0.7z"/><path class="bb" d="m435.6 77l1.4 0.4 6.4 3.9 0.7 1.4-1.4-0.3-1.1-1.1-2.1-1.1-3.9-2.8z"/><path class="bv" d="m265.9 467.9l1 0.3 4.7 7.8 1 1.8-0.3 0.7-1.8-1.4h0.7l-2.1-3.6-1.4-2.4z"/><path class="bP" d="m210.5 351.4h3.2l3.2 0.7 3.9 0.4v0.4l-4.6 0.3-5.3-1.1z"/><path class="bQ" d="m209.8 608.4l1.4 0.7 3.9 4 2.9 2.4 1 1.1-0.3 0.7-2.5-2.5-2.9-2.5-3.5-3.2z"/><path class="bR" d="m236.4 488.1l1.8 0.7 0.3 1.8 1.8 0.7 1.8 2.1-1.1 0.4-2.8-2.5-1.4-1.8z"/><path class="b8" d="m510.1 401.5l0.7 0.3-0.7 1.5-3.9 1.4h-1.1v-0.7l-0.7-0.4z"/><path class="bS" d="m561.6 339.4h6.4l-1.1 0.7-4.6 0.7h-4.3l-0.3-0.7 3.9-0.4z"/><path class="bT" d="m162.2 328l1.4 0.4 3.2 2.8 6.1 4.3-0.4 0.7-4.6-3.2-3.2-2.5-2.5-2.1z"/><path class="bU" d="m345 607.4h0.8l-0.8 2.1-3.2 7.5-0.7 1 0.4-2.5 1.8-4.6z"/><path class="bV" d="m500.5 405.4l0.7 0.3-0.3 1.5-5.7 3.2-0.7-0.4 1.1-0.4 0.3-1.4 2.5-1.4 1.4 0.4-0.3-1.1z"/><path class="bW" d="m408.2 57.5l1.4 0.4 6.4 4.9 0.7 0.7h-1.4l-4.9-3.9-2.2-1.7z"/><path class="bX" d="m217.6 388.3l1.1 0.4 0.3 2.8h-1.8l-1.7-0.3 1-1.8z"/><path class="bY" d="m566.2 389.1l0.3 1-5.3 5.3-1-0.3 1.7-1.8 2.2-2.5h0.7l0.3-1z"/><path class="bZ" d="m574.7 327.3h1.1v2.5l-2.2-0.4-2.1-0.7 1.1-1.1z"/><path class="O" d="m305.3 564.8l1.8 0.7v2.5l-2.2 1.7z"/><path class="c0" d="m264.8 506.2l2.5 0.4v0.7l1.4 0.7 0.4 1.4-1.4-0.4-0.4-1.4-2.8 0.4-0.7-1.4z"/><path class="bF" d="m206.2 428.8l3.6 1.8h5.7l1 0.7-0.3 0.4h-6.1l-2.8-1.5z"/><path class="c1" d="m132.8 236.4l0.3 1.1-3.2 7.1-1 0.3 1-3.2z"/><path class="c2" d="m387.3 222.9l2.5 0.4 5.3 1.4 1.8 0.7v0.7l-4.6-1-5-1.5z"/><path class="w" d="m325.5 46.5l0.7 0.4-4.2 3.9h-0.7l-0.8 1.4-3.5 2.8-0.7-0.3 3.9-3.6h0.7v-0.7l3.9-3.2z"/><path class="c3" d="m129.9 426.3h0.7l0.7 3.2 0.8 1.1 1.4 0.3v0.8l-2.9 0.7-0.7-4.3z"/><path class="c4" d="m489.5 426.3l0.7 0.4-0.7 1.4-2.1 1.1-1.1 1-2.5 2.2-0.3-1.1 5-4.3z"/><path class="as" d="m163.3 339.4l2.5 0.3 1.8 1.4 0.7 1.5 0.7 0.7-1.8-0.4-3.6-2.8z"/><path class="b3" d="m590 232.2l1 0.3 3.2 6.8-0.7 0.3-0.7-0.3-1.4-3.6z"/><path class="bu" d="m459.7 118.2l1.8 0.7 3.5 2.5 4.6 3.2-1 0.4-5-3.6-3.9-2.8z"/><path class="c5" d="m342.9 637.2l2.5 0.7 3.9 1.4-0.7 0.7h-2.5l-1.4-1z"/><path class="c6" d="m224.7 593.2l1.4 0.7 2.9 2.8 2.1 1.8-1.4 0.4-0.4-0.8-1.8-1-0.3-1.1h-0.7l-1.1-1.8-0.7-0.3z"/><path class="c7" d="m274.4 566.5l2.8 2.2 5 5.3 0.4 0.7-1.5-0.7-6.7-6.7z"/><path class="c8" d="m133.8 506.9l1.1 1.1 2.8 6.4 0.7 1-0.3 1.1-3.2-6-1.1-2.2z"/><path class="c9" d="m241.4 423.5h0.7l3.2 5.7-0.4 1.7-1-1.4-2.5-5.3z"/><path class="ca" d="m620.5 334.7l0.7 0.8 0.7 5.6v3.2h-0.3l-0.7-2.5-0.4-3.5z"/><path class="cb" d="m452.6 88l1.8 0.4 6.7 4.6-0.3 0.7-7.8-5z"/><path class="cc" d="m362.1 43.3l1.4 0.7 2.8 2.5 0.7 1.8 1.1 0.3-0.3 1.1-3.6-3.6-1.4-1.7-0.7-0.4v0.7h-0.7z"/><path class="cd" d="m359.6 717.4l4.6 0.7-0.7 1.4-1.1 1.1-2.8-2.5z"/><path class="bJ" d="m160.5 552.3l1.7 1.8 2.9 3.9 1 1.4-0.3 1.1-3.6-4.6-1.7-2.5z"/><path class="bI" d="m400.4 51.1l1.4 0.4 3.2 2.8 2.9 2.1-1.1 0.4-6.4-5z"/><path class="bW" d="m177.5 574.4l1.8 1.7 3.9 4.3 1 1.4-0.3 0.7-2.9-2.8-3.2-3.9z"/><path class="w" d="m619.1 309.9l0.7 1.4 1.4 7.8v2.5l-0.7-1.1-0.3-0.7-0.4-4.6-0.7-3.5z"/><path class="ce" d="m173.9 207l0.4 1-4.3 6.8h-0.7l0.7-1.8 2.9-5h0.7z"/><path class="cf" d="m106.8 422.8h0.8l1 6-0.3 1.8-0.7-1.1-0.8-3.9z"/><path class="cg" d="m228.6 213.7l1.1 0.4v7.1l-0.7 0.3-0.4-2.1z"/><path class="ch" d="m369.9 625.1l0.7 0.4-2.5 2.1-5.7 2.8-0.7-0.3 4.6-2.5z"/><path class="ci" d="m224.3 591.8l1.8 0.7 1.4 1.4v1l1.8 0.8 0.4 1h-1.1l-4.3-4.2z"/><path class="bb" d="m383.4 544.5v1.1l-1.4 1.8-1.8 1.4-1.8 1.8v-1.1l2.5-2.8z"/><path class="cj" d="m271.2 493.4h0.7l5.3 8.5-1-0.3v-0.7h-0.7l-3.2-5.3-0.4-1.1-1-0.4z"/><path class="aX" d="m182.5 256.7h3.9l-0.4 0.7-6 1-1.1-0.3 0.4-0.7z"/><path class="l" d="m167.6 254.5l1 0.4-8.5 3.9-1.4 0.3 1.4-1.4z"/><path class="ck" d="m361 229h4.3l-1.4 0.7-1.8 0.7-5.3 0.3 1-0.7 2.9-0.7z"/><path class="cl" d="m416.4 479.9l0.7 0.7-0.4 1.5-1.7 3.2-1.1-0.4 0.7-1.8z"/><path class="cm" d="m188.1 343.3l1.5 0.7 1.7 0.7 3.6 1.8-1.4 0.3-5-2.1z"/><path class="cn" d="m155.1 276.2l1.4 0.3-0.7 1.1-1.4 0.3-3.2 1.5-1 0.3v-0.7l3.5-2.1z"/><path class="an" d="m172.5 173.6l0.7 0.3-2.1 3.6-2.5 1.4 0.7-1.4z"/><path class="co" d="m325.5 144.8l1.1 1.1 1 4.3 0.4 2.8-0.7 0.4-1.1-4.3-0.3-1.8z"/><path class="bJ" d="m484.9 137l1.4 0.7 4.6 3.6 2.2 1.8-0.4 0.7-7.8-6.4z"/><path class="cp" d="m355 50.4l0.7 0.4-2.5 2.8-3.5 3.2v-1.1l2.1-2.1h0.7l0.4-1.1h0.7l0.3-1h0.7z"/><path class="cq" d="m334.4 698.6l1.4 0.7 3.2 2.1 3.6 2.5-1.1 0.4-6.4-4.6-0.7-0.4z"/><path class="cr" d="m455.1 655.3h0.7v0.7l-7.1 4.6-0.4-0.7 0.4-0.7 2.8-1.4z"/><path class="cs" d="m267.7 472.1l1 0.4 2.5 3.9v0.7l-1.1 0.3-1.7-2.8z"/><path class="ct" d="m432.7 246l1.8 0.7 3.9 3.2 2.5 2.1-0.4 0.7-4.6-3.9-3.2-2.4z"/><path class="cu" d="m386.2 538.2l0.4 0.7-1.1 1.7v1.1l-1.1 0.7h-0.7l-1.7 1.4 0.7-1.4 2.1-2.8z"/><path class="cv" d="m520.4 378.1l7.8 0.7 0.4 0.7h-4.3l-2.5-0.4v-0.7z"/><path class="aj" d="m211.2 255.2h5.3l1.8 0.4v0.7l-7.1-0.4z"/><path class="cw" d="m544.5 197.4l1.8 1.7 2.9 3.9v1.5l-1.5-1.8-3.2-4.3z"/><path class="cx" d="m346.8 642.9l1.8 0.7 2.5 1v0.4l-3.9-0.4-1.8-0.7v-0.7z"/><path class="cy" d="m308.8 558.7h4.6l2.2 0.7-1.4 1.1-2.5-0.3-0.4-0.8-2.5-0.3z"/><path class="L" d="m179.6 541h1.1l2.8 3.5 1.4 2.5-1.4-0.7-1-1.4v-1.1l-1.5-0.7-1.4-1.4z"/><path class="aS" d="m132.4 443l1.1 1.1 1 3.9v2.5l-0.7-0.7-1.4-5.4z"/><path class="cz" d="m151.6 262.3h0.7l-0.4 1.5-2.1 0.3-1.1 0.4v0.7l-1.4 0.7h-1.8l0.4-0.7 3.2-1.4 1.1-1.1z"/><path class="ck" d="m211.9 579.3l1.4 0.7 2.5 2.9-0.7 0.7-3.5-3.6z"/><path class="co" d="m285.8 543.8l1 0.4-0.7 1.4-0.3 0.4h-1.8l-0.7-1.8z"/><path class="cA" d="m455.1 274.4l2.1 0.4 1.4 0.7v0.7h0.7v1l-1.7-0.3-2.5-1.8z"/><path class="Z" d="m341.5 224.7h1.8l-0.7 0.7-5.4 1.8-1.4 0.3 0.4-1z"/><path class="l" d="m300.3 173.6l2.5 0.3 1.8 0.8-0.7 1.4-2.2-0.4-1.4-1.4z"/><path class="cB" d="m220.1 587.5l1.4 0.7 1.4 1.1v0.7l1.4 0.7 1.5 1.4h-1.8l-3.9-4.3z"/><path class="cC" d="m159.7 510.5l1.5 1.7 2.4 4.7-0.3 1-3.6-6z"/><path class="cD" d="m429.9 460.1h1.8l-2.2 2.4-0.7 0.4-0.3-1.4-1.1-0.7z"/><path class="w" d="m624.4 374.1h0.4v8.2h-0.7l-0.4-3.5z"/><path class="cE" d="m483.1 108.6l1.8 0.7 5 3.6-1.1 0.3-5.7-3.9z"/><path class="cF" d="m167.2 522.9l1.4 0.7 2.1 3.9 0.8 1.1-0.4 1-2.5-3.9z"/><path class="cG" d="m253.1 478.9l1.4 1.4 1.1 2.1v1.8l-1.1-0.4-1-3.5z"/><path class="cH" d="m450.8 455.4l1.1 0.4-1.8 1.4-1.4 1.4-1.4 0.7-0.7-0.7z"/><path class="cr" d="m249.6 298.9l1.4 0.3 4.6 4-0.4 0.7-3.5-2.9-2.1-1.4z"/><path class="bv" d="m328 240.7h0.7l0.4 1-1.8 1.1-1.4 0.7-1.8 0.4 1.8-1.8z"/><path class="bv" d="m273.3 479.6l1.5 1.4 3.1 5-0.3 0.7-1.4-1.8-2.9-4.3z"/><path class="bv" d="m241.7 422.4h0.8l2.8 6.1-0.4 0.7-2.8-5v-0.7l-0.7-0.4z"/><path class="bv" d="m426.3 306.3l0.4 1.1-0.7 1.4-4.3 2.5-0.7-0.3 3.9-2.9z"/><path class="cI" d="m439.1 143.1h1.1l-0.7 2.1-1.1 1.1h-1.1v-1.1h0.7v-1.1h0.8z"/><path class="cJ" d="m267.3 628l1.8 0.3 4.9 3.6-1 0.3-3.6-2.5-2.1-1.4z"/><path class="cK" d="m479.9 420.7l1.5 0.3-2.9 2.8-1.1-0.3v-0.7h0.8l0.3-1.1z"/><path class="cL" d="m225.4 388.7l1.1 0.4 1.8 4.2v0.7l-1.5-0.7z"/><path class="cM" d="m260.6 341.8l0.7 0.4-1.1 0.4-0.7 1.4h-1.1v0.7h-2.1l1.4-1.4z"/><path class="cN" d="m425.6 251.7l1.4 0.7 3.6 2.8 0.7 0.4-0.4 1.1-5.3-4.3z"/><path class="cO" d="m373.8 55l2.5 2.2 2.8 2.1-0.3 1.4-5-5z"/><path class="cP" d="m287.9 641.8l1.8 0.7 3.5 2.5-0.3 0.7-2.9-1.8-1.8-1z"/><path class="cQ" d="m351.4 568h5v0.7l-1.4 1-2.1-0.7z"/><path class="cR" d="m214.4 464.7l1.4 1.4 2.2 3.9v0.7l-1.1-0.4-2.5-4.9z"/><path class="cS" d="m617.7 314.2l0.7 0.7 0.3 1.7v3.2l-1.4-2.8v-2.5z"/><path class="cT" d="m289 293.6l1.4 1v0.7l1 0.4 1.1 1.8v0.7l-1.1 0.3-2.4-4.2z"/><path class="cU" d="m429.2 314.9l0.7 0.3-1.8 2.2-2.5 0.7 0.4-1.1z"/><path class="cr" d="m227.9 624.4l1.4 0.7 3.9 3.2-0.3 0.7-5-3.9z"/><path class="cV" d="m528.2 595.7l0.7 0.3-0.7 1.1h-0.7v0.7l-2.8 2.5-1.5 0.7 2.2-2.5z"/><path class="cW" d="m250.6 481l1.1 0.4v1l0.7 0.4h-0.7v0.7l-1.8 0.7v-1.8z"/><path class="co" d="m222.6 478.5h0.7l2.5 5-0.7 0.3-2.5-4.2z"/><path class="cX" d="m233.6 445.9l1.4 0.7 1.8 2.1 0.7 2.1-1.1-0.3-2.1-3.6z"/><path class="cY" d="m222.9 420.7h0.4v3.9l-1.1 1v-3.9z"/><path class="cZ" d="m560.9 222.6h0.7l1.8 2.8 0.7 1.4-0.4 1.5-2.8-5z"/><path class="cw" d="m437.3 103.3l1.8 0.7 3.9 2.5 0.4 0.7-2.2-0.7-3.9-2.5z"/><path class="d0" d="m362.1 44l1.4 0.7 0.7 1.4h-2.8l-1.4 0.8z"/><path class="d1" d="m148.7 488.8l1.1 1.1 1.8 3.9v0.7h-0.7l-2.2-4.6z"/><path class="d2" d="m423.5 469.3l0.3 0.7-2.8 4.6-1.1-0.7 1.5-1.4 0.3-1.4zm-3.9 4.9l0.7 0.7h-0.7z"/><path class="w" d="m138.1 454.4l1.1 1 1 3.6-0.3 1.1-1.5-3.6z"/><path class="d3" d="m300.7 94.8h1l-0.3 1-3.9 2.2 0.3-1.8h1.1z"/><path class="d4" d="m416.4 63.5l1.8 0.8 2.1 1.7v0.7l-2.1-0.7-1.8-1.7z"/><path class="d5" d="m274.4 553.1l1.8 1.7 0.7 1.5-0.7 0.7-2.2-2.5z"/><path class="bv" d="m292.1 507.3l1.8 1.7 2.2 3.2v1.1l-1.8-2.1-0.7-1.4-1.5-1.5z"/><path class="d6" d="m221.2 477.4h0.7v0.8h0.7l1 2.8v1.4l-1-1.4-1.4-2.8z"/><path class="d7" d="m434.1 472.5v1l-1.4 2.2-1 0.3 0.3-1.7 1.1-1.5z"/><path class="d8" d="m222.2 444.8l1.1 0.3-2.1 1.5-1.5 2.5-1 0.3 0.3-1.4 2.5-2.9z"/><path class="d9" d="m183.9 341.8l3.5 0.8 0.7 1.4 0.7 0.3-1.7-0.3-3.2-1.8z"/><path class="da" d="m281.9 332.6v1.1l-0.8 2.1-1.7 0.4 0.7-1.5z"/><path class="I" d="m230 222.9l1.1 1.1 1.1 4.3-1.5-1.5-0.7-2.1z"/><path class="db" d="m260.9 95.5l0.7 0.3-1.4 1.8-2.1 1.1h-0.7l0.3-1.1z"/><path class="dc" d="m461.8 94.1l1.4 0.3 4 2.5 0.3 0.7-1.4-0.3-4.3-2.9z"/><path class="cd" d="m276.2 85.6h1v0.7l-1.7 1-1.5 0.4v0.7l-1.4 0.3 0.7-1.4z"/><path class="dd" d="m323.4 597.8l1.8 0.3v0.8l1.7 0.7v1l-1.7-0.7-2.2-1.4z"/><path class="de" d="m306.3 563.7l2.2 1.1v1.4h-1.4l-1.1-1.1z"/><path class="df" d="m369.5 555.9l0.7 0.4-0.3 1.4-2.5 1.7v-1z"/><path class="dg" d="m297.5 530l1.4 0.7 2.5 3.2h-1.1l-2.8-3.2z"/><path class="aS" d="m433.1 257l0.7 0.4 0.3 0.7 1.1 0.3 1.4 1.8-0.3 0.7-3.6-2.8z"/><path class="dh" d="m262 180.3l1.8 0.7 1.7 1.5-0.3 0.7-1.4-0.4 0.3-0.7h-1.1l-1.4-0.7z"/><path class="di" d="m351.1 24.1l0.7 0.4-1.8 1.4 0.7-1.4zm-1.4 1.8l0.4 1-2.9 2.5v-1z"/><path class="dj" d="m412.8 682.6l1.1 0.4-3.9 2.8-1.1 0.4 0.7-1.4z"/><path class="dk" d="m481.7 636.1h0.7v0.7l-3.9 2.9v-1.1l1.4-0.7v-0.7z"/><path class="dl" d="m414.3 484.5l0.7 1.1-1.4 2.9-0.8-0.4 0.4-2.5z"/><path class="dm" d="m361.4 455.8l5.6 0.7-0.3 1.1-3.2-0.7-2.1-0.8z"/><path class="dn" d="m486.3 415l1.1 0.3-0.7 1.4-1.4 1.1h-0.8l0.4-1.8z"/><path class="aZ" d="m541 376.3l2.5 0.3v0.4l-3.9 0.7v0.7h-1.1v-0.7l-1.1-0.4z"/><path class="do" d="m547.4 313.1h1v0.7l-4.2 2.1 0.7-1.4z"/><path class="bv" d="m382.7 309.5l2.8 0.4 2.1 1.4-0.7 0.4-2.5-0.7z"/><path class="bb" d="m598.5 251.3h1.1l1.4 3.6v0.7h-0.7l-1.8-3.6z"/><path class="co" d="m290.7 150.2l1.4 1.7 0.8 1.5-0.8 0.7-1.4-1.8-0.3-1.4z"/><path class="bz" d="m327.3 47.9h0.7v0.7l-1.8 1.5-1.4 1.4h-0.7l0.7-1.4z"/><path class="cw" d="m354.6 713.5l1.4 0.7 3.2 2.5v1.1l-4.6-3.9z"/><path class="dp" d="m199.1 564.8l3.2 3.2h-1l-1.8-1.1-0.4-1.4z"/><path class="dq" d="m307.4 562.6l1.4 0.8 0.7 2.4-1-0.3-0.7-1.8-1.1-0.3z"/><path class="dr" d="m413.2 513.7l0.4 0.7 0.7 0.3-1.1 1.8-1.1 2.1h-0.7l1.1-3.2z"/><path class="co" d="m260.9 511.9h1.8l0.3 2.5h-1.4z"/><path class="ds" d="m262 508.7l1 0.3 0.8 2.2v2.1l-0.8-0.4z"/><path class="dt" d="m268.7 508h0.7l0.4 1.4-1.1 1.4h-1l-0.4-1.4 1.1-0.4 0.7 0.4z"/><path class="du" d="m240 502.7h0.7l2.1 3.5-0.3 1.1-1.5-1.8-1-2.1z"/><path class="dv" d="m230.7 489.2l1.8 0.7 1.4 2.5-0.3 0.7-2.9-3.2z"/><path class="dw" d="m222.6 399.4l1 0.3 1.1 2.5v2.5l-0.7-1.1-1.4-3.5z"/><path class="dx" d="m566.2 231.4l1.1 0.4 1 2.5 0.4 0.7-0.7 0.7-1.8-2.8z"/><path class="a7" d="m331.9 228.3v1l-2.1 1.1-1.4 0.3v-1z"/><path class="l" d="m493.8 209.8h1.8l-1.5 0.7-4.2 1.4-1.4-0.3 2.4-1.1z"/><path class="dy" d="m541 192.8l1.8 1.7 0.3 1.1h0.7l0.4 1.8-1.8-1.8-1.4-1.8z"/><path class="dz" d="m313.1 591.8l1.8 0.7 2.8 2.1-1.4 0.3-3.2-2.8z"/><path class="cP" d="m139.9 519l0.7 0.3 0.7 2.2h0.7l0.3 1.7-0.7 0.4-1.7-3.2z"/><path class="dA" d="m155.1 502.3h0.7l1.8 3.5v0.8l-1.1-0.4-1.4-2.8z"/><path class="dB" d="m229.3 486l1.1 0.3 1.8 3.2-0.4 0.7-1.8-1.7z"/><path class="dC" d="m440.9 462.5h0.7l-0.7 1.5-2.5 2.1v-1.1z"/><path class="dD" d="m250.6 457.9l1.1 0.4 1 2.1 0.4 1.4h-0.7l-1.8-3.2z"/><path class="aD" d="m447.3 444.1l0.7 0.3-1.1 1.1h-0.7l-0.3 1.1-1.8 0.3v-1z"/><path class="dE" d="m595.3 433.4h0.4l-0.4 3.2-0.7 0.4-0.7 1 0.3-2.8z"/><path class="dF" d="m147.7 263.8l1.4 0.3-2.1 1.1-1.1-0.4zm-2.8 1.1l0.7 1.4-1.8 0.4z"/><path class="dG" d="m411.1 240.7l0.3 0.7 2.2 0.7v1.1l0.7 0.3-1.8-0.3-1.8-1.1z"/><path class="dH" d="m392.3 224.3l2.8 0.4 1.8 0.7v0.7l-4.6-1z"/><path class="ce" d="m185.7 191.3l0.3 1.1-2.5 3.2h-0.7l0.7-1.8 0.7-1h0.7z"/><path class="dE" d="m419.2 678.7l0.7 0.4-3.5 2.5-1.1-0.4z"/><path class="bQ" d="m221.5 619.1l1.4 0.7 3.2 2.8-0.3 0.7-4.3-3.9z"/><path class="bJ" d="m238.2 605.2l1.4 0.4 2.9 2.5h-1.1l-2.9-2.1z"/><path class="bf" d="m202.7 570.8l1.4 0.7 1.8 2.5-1.4-0.4-1.8-2.1z"/><path class="dI" d="m414.6 511.9h0.7v2.8l-1.7-0.3 0.3-2.2z"/><path class="dJ" d="m423.1 489.5h1.1l-0.4 1.4-0.7 1.5-1 0.3 0.3-1.8z"/><path class="bn" d="m217.2 486l1.8 1.7v0.8h0.7l-0.3 1-1.1-0.3-1.1-2.2z"/><path class="dK" d="m260.6 459.7l0.3 0.7h0.7l1.4 2.5-0.3 1.1-2.1-2.9z"/><path class="dL" d="m113.2 452.2l0.7 0.4 0.8 3.9-0.8 0.7-0.7-2.5z"/><path class="cj" d="m224 404.3l1.1 0.7 1 2.5-0.3 1.8-0.7-0.7z"/><path class="dM" d="m543.1 293.2l4.3 0.4 0.3 0.7-3.2 0.3-0.3-1z"/><path class="dN" d="m334.4 235.4h0.7v0.7l-3.5 1.7h-1.1v-0.7z"/><path class="dO" d="m179.6 199.1l0.4 1.1-2.5 3.2-0.4-1.4h0.7l0.8-1.4z"/><path class="x" d="m303.2 172.9l1.4 0.3v1.5l-1.8-0.4-0.7-0.7z"/><path class="dP" d="m183.5 161.5v1.1l-2.8 2.8h-0.7l0.7-1.4z"/><path class="dQ" d="m397.2 154.1l1.1 1-0.7 2.2-1.1-0.8 0.4-1.7z"/><path class="l" d="m360.3 153l1.4 1.1h2.5l1.1-0.4v0.7l-2.5 1.1-2.5-1.4z"/></svg>